<?xml version="1.0" encoding="UTF-8" standalone="no"?>
<svg
   xmlns:dc="http://purl.org/dc/elements/1.1/"
   xmlns:cc="http://creativecommons.org/ns#"
   xmlns:rdf="http://www.w3.org/1999/02/22-rdf-syntax-ns#"
   xmlns:svg="http://www.w3.org/2000/svg"
   xmlns="http://www.w3.org/2000/svg"
   xmlns:sodipodi="http://sodipodi.sourceforge.net/DTD/sodipodi-0.dtd"
   xmlns:inkscape="http://www.inkscape.org/namespaces/inkscape"
   viewBox="0 0 466.35 500"
   version="1.1"
   id="svg279"
   sodipodi:docname="Delivery_app_SVG.svg"
   inkscape:version="0.92.4 (f8dce91, 2019-08-02)">
  <metadata
     id="metadata283">
    <rdf:RDF>
      <cc:Work
         rdf:about="">
        <dc:format>image/svg+xml</dc:format>
        <dc:type
           rdf:resource="http://purl.org/dc/dcmitype/StillImage" />
      </cc:Work>
    </rdf:RDF>
  </metadata>
  <sodipodi:namedview
     pagecolor="#ffffff"
     bordercolor="#666666"
     borderopacity="1"
     objecttolerance="10"
     gridtolerance="10"
     guidetolerance="10"
     inkscape:pageopacity="0"
     inkscape:pageshadow="2"
     inkscape:window-width="1920"
     inkscape:window-height="1025"
     id="namedview281"
     showgrid="false"
     inkscape:zoom="1.66"
     inkscape:cx="233.175"
     inkscape:cy="250"
     inkscape:window-x="0"
     inkscape:window-y="27"
     inkscape:window-maximized="1"
     inkscape:current-layer="svg279" />
  <defs
     id="defs4">
    <style
       id="style2">.cls-1{fill:#b1b4c4;}.cls-2{fill:#616e84;}.cls-3{fill:#20232d;}.cls-4,.cls-6{fill:#fff;}.cls-5{fill:#2b303f;}.cls-13,.cls-6{opacity:0.1;}.cls-7{fill:#757b89;}.cls-8{fill:#dadce5;}.cls-9{fill:#e9eaf2;}.cls-10{fill:#efda86;}.cls-11{fill:#d1b66b;}.cls-12{fill:#e2c979;}.cls-14{opacity:0.05;}.cls-15,.cls-25{fill:#d6d8e5;}.cls-15{opacity:0.4;}.cls-16{fill:#ffcea9;}.cls-17{fill:#ededed;}.cls-18{fill:#2b2a30;}.cls-19{fill:#bf4b4b;}.cls-20{fill:#e26161;}.cls-21{fill:#f4f4f4;}.cls-22{fill:#38226d;}.cls-23{fill:#8c50ff;}.cls-24{fill:#3a2c6d;}.cls-26{fill:#e4e6ef;}.cls-27{fill:#28221c;}.cls-28{fill:#99b524;}.cls-29{fill:#a6ce28;}</style>
  </defs>
  <title
     id="title6">Delivery_app_SVG</title>
  <g
     id="Слой_2"
     data-name="Слой 2">
    <g
       id="Слой_1-2"
       data-name="Слой 1">
      <path
         class="cls-1"
         d="M376,355.45l-93.69-54.09c-7.93-4.58-14.37-16.87-14.37-27.45V12.59C268,2,274.41-2.86,282.34,1.72L376,55.81C384,60.4,390.4,72.69,390.4,83.27V344.59C390.4,355.17,384,360,376,355.45Z"
         id="path8" />
      <polygon
         class="cls-1"
         points="377.63 360.16 385.06 356.41 377.94 344.2 377.63 360.16"
         id="polygon10" />
      <polygon
         class="cls-1"
         points="266.52 4.33 273.35 0.75 271.97 10.82 266.52 4.33"
         id="polygon12" />
      <path
         class="cls-2"
         d="M370.05,358.44l-93.68-54.09c-7.94-4.58-14.37-16.87-14.37-27.46V15.57C262,5,268.43.13,276.37,4.71L370.05,58.8c7.94,4.58,14.37,16.87,14.37,27.45V347.58C384.42,358.16,378,363,370.05,358.44Z"
         id="path14" />
      <path
         class="cls-3"
         d="M383.43,86.92V348.24c0,10.58-6.43,15.44-14.37,10.87l-36.74-21.22L320.9,331.3,275.37,305c-7.93-4.59-14.36-16.87-14.36-27.46V16.24C261,5.65,267.44.8,275.37,5.37l93.69,54.09C377,64.05,383.43,76.33,383.43,86.92Z"
         id="path16" />
      <path
         class="cls-4"
         d="M376.67,84.27V338.78c0,6.41-4.5,9-10.05,5.8l-29.29-16.9-2.59-1.5-.86-.5L327.55,322l-18.32-10.56h0l-7.6-4.39-3.06-1.76-20.76-12c-5.55-3.21-10.05-11-10.05-17.43V21.39c0-6.42,4.5-9,10.05-5.81L314.39,36.7v.1a17.32,17.32,0,0,0,7.82,13.56c4.33,2.48,7.84.47,7.84-4.52,0,0,0-.08,0-.11l36.59,21.12C372.17,70.05,376.67,77.85,376.67,84.27Z"
         id="path18" />
      <ellipse
         class="cls-5"
         cx="322.22"
         cy="44.09"
         rx="2.42"
         ry="4.2"
         transform="translate(21.13 167.02) rotate(-30)"
         id="ellipse20" />
      <path
         class="cls-6"
         d="M322.22,45.53A2.77,2.77,0,0,1,321,43.37c0-.79.56-1.12,1.25-.72a2.77,2.77,0,0,1,1.24,2.16C323.46,45.6,322.9,45.92,322.22,45.53Z"
         id="path22" />
      <path
         class="cls-7"
         d="M387.23,121.3h0c-.77.45-1.39,0-1.39-1V109.12a3.31,3.31,0,0,1,1.39-2.65h0c.76-.44,1.38,0,1.38,1v11.14A3.31,3.31,0,0,1,387.23,121.3Z"
         id="path24" />
      <path
         class="cls-7"
         d="M387.23,139.56h0c-.77.44-1.39,0-1.39-1.05V127.37a3.29,3.29,0,0,1,1.39-2.64h0c.76-.44,1.38,0,1.38,1v11.15A3.31,3.31,0,0,1,387.23,139.56Z"
         id="path26" />
      <path
         class="cls-8"
         d="M293.25,43.29c-8.17-4.72-14.82-.88-14.82,8.56a25.28,25.28,0,0,0,1.29,7.73c3.71,11.51,10.82,25.5,12.91,29.52a1.75,1.75,0,0,0,.62.69.56.56,0,0,0,.63,0c2.09-1.6,9.2-7.39,12.91-14.61A13.66,13.66,0,0,0,308.08,69C308.08,59.53,301.43,48,293.25,43.29Zm0,26A17.07,17.07,0,0,1,285.55,56c0-4.9,3.46-6.9,7.7-4.45A17.05,17.05,0,0,1,301,64.85C301,69.76,297.5,71.75,293.25,69.3Z"
         id="path28" />
      <path
         class="cls-9"
         d="M358.6,233.07l-73-42.15c-4-2.28-7.16-8.41-7.16-13.68v-50.7c0-5.27,3.2-7.69,7.16-5.41l73,42.16c4,2.28,7.16,8.4,7.16,13.68v50.69C365.76,232.93,362.56,235.36,358.6,233.07Z"
         id="path30" />
      <path
         class="cls-9"
         d="M362.18,92.83l-39-22.52c-2-1.14-3.58-4.2-3.58-6.84v-.21c0-2.63,1.6-3.84,3.58-2.7l39,22.52c2,1.14,3.58,4.2,3.58,6.84v.21C365.76,92.76,364.16,94,362.18,92.83Z"
         id="path32" />
      <path
         class="cls-9"
         d="M362.18,111.59l-39-22.53c-2-1.14-3.58-4.2-3.58-6.83V82c0-2.64,1.6-3.85,3.58-2.71l39,22.53c2,1.14,3.58,4.2,3.58,6.83v.21C365.76,111.52,364.16,112.73,362.18,111.59Z"
         id="path34" />
      <path
         class="cls-9"
         d="M362.18,131.42l-39-22.52c-2-1.14-3.58-4.21-3.58-6.84v-.21c0-2.64,1.6-3.85,3.58-2.71l39,22.53c2,1.14,3.58,4.2,3.58,6.84v.21C365.76,131.35,364.16,132.56,362.18,131.42Z"
         id="path36" />
      <path
         class="cls-9"
         d="M362.18,151.25,282,105c-2-1.14-3.58-4.2-3.58-6.83v-.21c0-2.64,1.6-3.85,3.58-2.71l80.17,46.29c2,1.14,3.58,4.2,3.58,6.84v.21C365.76,151.18,364.16,152.39,362.18,151.25Z"
         id="path38" />
      <path
         class="cls-9"
         d="M362.18,257.2,282,210.91c-2-1.14-3.58-4.2-3.58-6.84v-.21c0-2.63,1.6-3.84,3.58-2.7l80.17,46.29c2,1.14,3.58,4.2,3.58,6.84v.2C365.76,257.13,364.16,258.34,362.18,257.2Z"
         id="path40" />
      <path
         class="cls-9"
         d="M362.18,278.6,282,232.31c-2-1.14-3.58-4.2-3.58-6.84v-.21c0-2.63,1.6-3.85,3.58-2.7l80.17,46.28c2,1.15,3.58,4.21,3.58,6.84v.21C365.76,278.53,364.16,279.74,362.18,278.6Z"
         id="path42" />
      <path
         class="cls-9"
         d="M362.18,300,282,253.71c-2-1.15-3.58-4.21-3.58-6.84v-.21c0-2.64,1.6-3.85,3.58-2.71l80.17,46.29c2,1.14,3.58,4.2,3.58,6.84v.21C365.76,299.92,364.16,301.14,362.18,300Z"
         id="path44" />
      <path
         class="cls-9"
         d="M327.17,301.18,282.9,275.62c-2-1.14-3.58-4.2-3.58-6.84v-.21c0-2.63,1.61-3.85,3.58-2.7l44.27,25.55c2,1.14,3.58,4.21,3.58,6.84v.21C330.75,301.1,329.14,302.32,327.17,301.18Z"
         id="path46" />
      <polygon
         class="cls-10"
         points="420.24 380.43 374.13 353.81 420.24 327.19 466.35 353.81 420.24 380.43"
         id="polygon48" />
      <polygon
         class="cls-11"
         points="463.24 408.22 420.24 433.05 420.24 383.4 463.24 358.58 463.24 408.22"
         id="polygon50" />
      <polygon
         class="cls-12"
         points="420.24 433.05 377.25 408.22 377.25 358.58 420.24 383.4 420.24 433.05"
         id="polygon52" />
      <polygon
         class="cls-13"
         points="377.25 358.58 377.25 371.57 420.24 396.11 420.24 383.46 377.25 358.58"
         id="polygon54" />
      <polygon
         class="cls-13"
         points="463.24 358.58 463.24 372.5 420.25 396.11 420.24 383.46 463.24 358.58"
         id="polygon56" />
      <polygon
         class="cls-12"
         points="374.13 353.81 374.13 367.58 420.24 393.84 420.24 380.43 374.13 353.81"
         id="polygon58" />
      <polygon
         class="cls-11"
         points="420.24 393.84 466.35 368.65 466.35 353.81 420.24 380.43 420.24 393.84"
         id="polygon60" />
      <polygon
         class="cls-10"
         points="365.16 411.82 319.05 385.2 365.16 358.58 411.27 385.2 365.16 411.82"
         id="polygon62" />
      <polygon
         class="cls-11"
         points="408.15 439.62 365.16 464.44 365.16 414.8 408.15 389.98 408.15 439.62"
         id="polygon64" />
      <polygon
         class="cls-12"
         points="365.16 464.44 322.17 439.62 322.17 389.98 365.16 414.8 365.16 464.44"
         id="polygon66" />
      <polygon
         class="cls-13"
         points="322.17 389.98 322.17 402.97 365.16 427.5 365.16 414.85 322.17 389.98"
         id="polygon68" />
      <polygon
         class="cls-13"
         points="408.15 389.98 408.15 403.89 365.16 427.5 365.16 414.85 408.15 389.98"
         id="polygon70" />
      <polygon
         class="cls-12"
         points="319.05 385.2 319.05 398.97 365.16 425.23 365.16 411.82 319.05 385.2"
         id="polygon72" />
      <polygon
         class="cls-11"
         points="365.16 425.23 411.27 400.05 411.27 385.2 365.16 411.82 365.16 425.23"
         id="polygon74" />
      <polygon
         class="cls-14"
         points="364.95 399.39 342.62 386.2 366.8 372.24 389.13 385.43 364.95 399.39"
         id="polygon76" />
      <polygon
         class="cls-10"
         points="367.85 370.17 343.66 356.21 367.85 342.24 392.03 356.21 367.85 370.17"
         id="polygon78" />
      <polygon
         class="cls-11"
         points="390.39 384.75 367.85 397.76 367.85 371.73 390.39 358.71 390.39 384.75"
         id="polygon80" />
      <polygon
         class="cls-12"
         points="367.85 397.76 345.3 384.75 345.3 358.71 367.85 371.73 367.85 397.76"
         id="polygon82" />
      <polygon
         class="cls-13"
         points="345.3 358.71 345.3 365.52 367.85 378.39 367.85 371.75 345.3 358.71"
         id="polygon84" />
      <polygon
         class="cls-13"
         points="390.39 358.71 390.39 366.01 367.85 378.39 367.85 371.75 390.39 358.71"
         id="polygon86" />
      <polygon
         class="cls-12"
         points="343.66 356.21 343.66 363.43 367.85 377.2 367.85 370.17 343.66 356.21"
         id="polygon88" />
      <polygon
         class="cls-11"
         points="367.85 377.2 392.03 363.99 392.03 356.21 367.85 370.17 367.85 377.2"
         id="polygon90" />
      <polygon
         class="cls-15"
         points="327.1 500 292.69 480.04 329.56 458.75 363.97 478.71 327.1 500"
         id="polygon92" />
      <polygon
         class="cls-10"
         points="330.97 455.67 294.1 434.38 330.97 413.09 367.85 434.38 330.97 455.67"
         id="polygon94" />
      <polygon
         class="cls-11"
         points="365.35 477.89 330.97 497.75 330.97 458.05 365.35 438.19 365.35 477.89"
         id="polygon96" />
      <polygon
         class="cls-12"
         points="330.97 497.75 296.59 477.89 296.59 438.19 330.97 458.05 330.97 497.75"
         id="polygon98" />
      <polygon
         class="cls-13"
         points="296.59 438.19 296.59 448.58 330.97 468.2 330.97 458.09 296.59 438.19"
         id="polygon100" />
      <polygon
         class="cls-13"
         points="365.35 438.19 365.35 449.32 330.97 468.2 330.97 458.09 365.35 438.19"
         id="polygon102" />
      <polygon
         class="cls-12"
         points="294.1 434.38 294.1 445.39 330.97 466.39 330.97 455.67 294.1 434.38"
         id="polygon104" />
      <polygon
         class="cls-11"
         points="330.97 466.39 367.85 446.25 367.85 434.38 330.97 455.67 330.97 466.39"
         id="polygon106" />
      <polygon
         class="cls-15"
         points="75.52 294.93 36.65 272.49 91.57 241.55 130.44 263.99 75.52 294.93"
         id="polygon108" />
      <polygon
         class="cls-10"
         points="77.77 246.6 38.9 224.16 93.82 193.22 132.69 215.66 77.77 246.6"
         id="polygon110" />
      <polygon
         class="cls-11"
         points="130.06 261.53 77.77 290.95 77.77 249.1 130.06 219.68 130.06 261.53"
         id="polygon112" />
      <polygon
         class="cls-12"
         points="77.77 290.95 41.53 270.03 41.53 228.18 77.77 249.1 77.77 290.95"
         id="polygon114" />
      <polygon
         class="cls-13"
         points="41.53 228.18 41.53 239.13 77.77 259.81 77.77 249.15 41.53 228.18"
         id="polygon116" />
      <polygon
         class="cls-13"
         points="130.06 219.68 130.06 231.42 77.77 259.81 77.77 249.15 130.06 219.68"
         id="polygon118" />
      <polygon
         class="cls-12"
         points="38.9 224.16 38.9 235.76 77.77 257.9 77.77 246.6 38.9 224.16"
         id="polygon120" />
      <polygon
         class="cls-11"
         points="77.77 257.9 132.69 228.18 132.69 215.66 77.77 246.6 77.77 257.9"
         id="polygon122" />
      <polygon
         class="cls-15"
         points="20.81 323.36 3.25 313.54 29.64 298.68 47.2 308.5 20.81 323.36"
         id="polygon124" />
      <polygon
         class="cls-10"
         points="23.19 300.72 4.51 289.94 30.9 275.07 49.57 285.85 23.19 300.72"
         id="polygon126" />
      <polygon
         class="cls-11"
         points="48.31 307.89 23.19 322.02 23.19 301.92 48.31 287.79 48.31 307.89"
         id="polygon128" />
      <polygon
         class="cls-12"
         points="23.19 322.02 5.78 311.97 5.78 291.87 23.19 301.92 23.19 322.02"
         id="polygon130" />
      <polygon
         class="cls-13"
         points="5.78 291.87 5.78 297.13 23.19 307.06 23.19 301.94 5.78 291.87"
         id="polygon132" />
      <polygon
         class="cls-13"
         points="48.31 287.79 48.31 293.42 23.19 307.06 23.19 301.94 48.31 287.79"
         id="polygon134" />
      <polygon
         class="cls-12"
         points="4.51 289.94 4.51 295.51 23.19 306.15 23.19 300.72 4.51 289.94"
         id="polygon136" />
      <polygon
         class="cls-11"
         points="23.19 306.15 49.57 291.87 49.57 285.85 23.19 300.72 23.19 306.15"
         id="polygon138" />
      <polygon
         class="cls-15"
         points="155.59 328.27 101.9 297.23 140.77 274.79 194.46 305.83 155.59 328.27"
         id="polygon140" />
      <polygon
         class="cls-10"
         points="160.65 281.06 106.96 250.02 145.83 227.58 199.52 258.62 160.65 281.06"
         id="polygon142" />
      <polygon
         class="cls-11"
         points="196.89 304.49 160.65 325.41 160.65 283.57 196.89 262.64 196.89 304.49"
         id="polygon144" />
      <polygon
         class="cls-12"
         points="160.65 325.41 109.59 295.89 109.59 254.05 160.65 283.57 160.65 325.41"
         id="polygon146" />
      <polygon
         class="cls-13"
         points="109.59 254.05 109.59 265 160.65 294.27 160.65 283.61 109.59 254.05"
         id="polygon148" />
      <polygon
         class="cls-13"
         points="196.89 262.64 196.89 274.37 160.65 294.27 160.65 283.61 196.89 262.64"
         id="polygon150" />
      <polygon
         class="cls-12"
         points="106.96 250.02 106.96 261.63 160.65 292.36 160.65 281.06 106.96 250.02"
         id="polygon152" />
      <polygon
         class="cls-11"
         points="160.65 292.36 199.52 271.13 199.52 258.62 160.65 281.06 160.65 292.36"
         id="polygon154" />
      <polygon
         class="cls-15"
         points="417.81 478.71 385.21 459.97 409.93 445.69 442.52 464.44 417.81 478.71"
         id="polygon156" />
      <polygon
         class="cls-10"
         points="421.6 448.23 387.46 428.49 412.18 414.22 446.32 433.96 421.6 448.23"
         id="polygon158" />
      <polygon
         class="cls-11"
         points="444.65 463.13 421.6 476.44 421.6 449.82 444.65 436.52 444.65 463.13"
         id="polygon160" />
      <polygon
         class="cls-12"
         points="421.6 476.44 389.13 457.66 389.13 431.05 421.6 449.82 421.6 476.44"
         id="polygon162" />
      <polygon
         class="cls-13"
         points="389.13 431.05 389.13 438.02 421.6 456.63 421.6 449.85 389.13 431.05"
         id="polygon164" />
      <polygon
         class="cls-13"
         points="444.65 436.52 444.65 443.98 421.6 456.63 421.6 449.85 444.65 436.52"
         id="polygon166" />
      <polygon
         class="cls-12"
         points="387.46 428.49 387.46 435.87 421.6 455.42 421.6 448.23 387.46 428.49"
         id="polygon168" />
      <polygon
         class="cls-11"
         points="421.6 455.42 446.32 441.92 446.32 433.96 421.6 448.23 421.6 455.42"
         id="polygon170" />
      <polygon
         class="cls-10"
         points="91.19 201.91 59.65 183.69 91.19 165.49 122.73 183.69 91.19 201.91"
         id="polygon172" />
      <polygon
         class="cls-14"
         points="87.73 239.75 57.89 223.04 89.44 204.83 119.27 221.54 87.73 239.75"
         id="polygon174" />
      <polygon
         class="cls-11"
         points="120.6 220.92 91.19 237.9 91.19 203.94 120.6 186.96 120.6 220.92"
         id="polygon176" />
      <polygon
         class="cls-12"
         points="91.19 237.9 61.78 220.92 61.78 186.96 91.19 203.94 91.19 237.9"
         id="polygon178" />
      <polygon
         class="cls-13"
         points="61.78 186.96 61.78 195.85 91.19 212.63 91.19 203.97 61.78 186.96"
         id="polygon180" />
      <polygon
         class="cls-13"
         points="120.6 186.96 120.6 196.48 91.19 212.63 91.19 203.97 120.6 186.96"
         id="polygon182" />
      <polygon
         class="cls-12"
         points="59.65 183.69 59.65 193.11 91.19 211.08 91.19 201.91 59.65 183.69"
         id="polygon184" />
      <polygon
         class="cls-11"
         points="91.19 211.08 122.73 193.85 122.73 183.69 91.19 201.91 91.19 211.08"
         id="polygon186" />
      <polygon
         class="cls-15"
         points="81.3 362.13 41.19 339.11 84.21 314.27 124.32 337.3 81.3 362.13"
         id="polygon188" />
      <polygon
         class="cls-10"
         points="85.8 310.43 42.77 285.59 85.8 260.75 128.82 285.59 85.8 310.43"
         id="polygon190" />
      <polygon
         class="cls-11"
         points="125.91 336.36 85.8 359.52 85.8 313.2 125.91 290.04 125.91 336.36"
         id="polygon192" />
      <polygon
         class="cls-12"
         points="85.8 359.52 45.68 336.36 45.68 290.04 85.8 313.2 85.8 359.52"
         id="polygon194" />
      <polygon
         class="cls-13"
         points="45.68 290.04 45.68 302.16 85.8 325.05 85.8 313.25 45.68 290.04"
         id="polygon196" />
      <polygon
         class="cls-13"
         points="125.91 290.04 125.91 303.03 85.8 325.05 85.8 313.25 125.91 290.04"
         id="polygon198" />
      <polygon
         class="cls-12"
         points="42.77 285.59 42.77 298.43 85.8 322.94 85.8 310.43 42.77 285.59"
         id="polygon200" />
      <polygon
         class="cls-11"
         points="85.8 322.94 128.82 299.44 128.82 285.59 85.8 310.43 85.8 322.94"
         id="polygon202" />
      <g
         id="Men_2">
        <path
           id="_Контур_"
           data-name="&lt;Контур&gt;"
           class="cls-16"
           d="M160.93,200.12c1.69,3.86,6.43,22,10.45,26.76s24,5.19,24,5.19l-3.26-10.33-12.8-3.26-6.59-16.43Z" />
        <path
           id="_Контур_2"
           data-name="&lt;Контур&gt;"
           class="cls-16"
           d="M187.24,215.91c-7.62,1.92-9.41-2.89-10.42-6.87-2.42-9.63-3.94,10.8-.75,13.37,3.93,3.18,5.2,5.91,14.16,3.68,3.82-1,8-3.24,15.25-6.61,1.94-.9,3.45-1.51,7.17-3.24s7.6-4.63,9.55-7.46,2.22-4.15,1.82-4.8c-.5-.81-1.39-.63-2.43.56a21,21,0,0,1-5.48,5.08s2.4-2.49,3.71-4.11a20.52,20.52,0,0,0,2.88-4.71c.69-1.65-.73-3.88-1.81-2.71s-1.59,2.37-3.56,4.74a20.51,20.51,0,0,1-3.53,3.36,38.53,38.53,0,0,0,3.25-5.23,8.71,8.71,0,0,0,1.19-4.73c-.06-.87-1.27-1.89-2.42-.26-1,1.47-1.69,3.77-4.09,6.26-1.74,1.81-3.22,2.84-3.26,2.34s1.05-1.49,1.67-3.59,0-4.33-1.16-4.57-.94-.18-1.88,1.79-2.36,3.42-3.46,6.29a13,13,0,0,1-3.13,5.4C198.63,211.88,194.49,214.08,187.24,215.91Z" />
        <ellipse
           class="cls-15"
           cx="196.46"
           cy="381.37"
           rx="42.95"
           ry="24.8"
           id="ellipse206" />
        <path
           id="_Контур_3"
           data-name="&lt;Контур&gt;"
           class="cls-17"
           d="M176.07,177.12a7.44,7.44,0,0,0-9.48,2.86c-2.51,4.16-5.12,18.4-5.35,20.83,0,0,3.51,4.86,8.79,4.05Z" />
        <path
           class="cls-18"
           d="M195.53,378.2a14.66,14.66,0,0,0,11-1.34c2.65.08,17.07-6.09,19-.91,1.72,4.54-4.53,8.74-7.86,9.55-7.29,1.77-12.67,5.4-15.6,6-2.18.46-5,.77-6.74-.95C193.31,388.51,193.49,380.9,195.53,378.2Z"
           id="path209" />
        <path
           class="cls-19"
           d="M202.13,390.26c2.93-.62,8.31-4.25,15.6-6,2.79-.67,7.61-3.73,8.1-7.38.64,4.18-5,7.89-8.1,8.64-7.29,1.77-12.67,5.4-15.6,6-2.18.46-5,.77-6.74-.95a4.23,4.23,0,0,1-.95-1.74C197,390.93,200,390.72,202.13,390.26Z"
           id="path211" />
        <path
           class="cls-18"
           d="M172.14,367.69a14.6,14.6,0,0,0,11-1.33c2.66.08,17.07-6.09,19-.91,1.71,4.54-4.53,8.74-7.87,9.55-7.28,1.77-12.67,5.4-15.59,6-2.18.46-5,.77-6.74-.95C169.93,378,170.11,370.4,172.14,367.69Z"
           id="path213" />
        <path
           class="cls-19"
           d="M178.75,379.76c2.92-.62,8.31-4.25,15.59-6,2.8-.67,7.61-3.73,8.1-7.38.65,4.18-5,7.89-8.1,8.64-7.28,1.77-12.67,5.4-15.59,6-2.18.46-5,.77-6.74-.95a4.35,4.35,0,0,1-1-1.74C173.59,380.43,176.57,380.22,178.75,379.76Z"
           id="path215" />
        <path
           id="_Контур_4"
           data-name="&lt;Контур&gt;"
           class="cls-20"
           d="M171.86,328.52a87.35,87.35,0,0,1,3.33-15.79s-1-13.63-1.49-26.55c-.57-14.66-5.65-27.56-1.64-39.26L217.3,257s-2.74,58.45-3.34,65.53a133.76,133.76,0,0,1-2,16.41c-2.07,11.35-5.42,38.34-5.42,38.34-4.79,2.78-11.07,1.24-11.07,1.24s.35-34.13.66-42.31c.37-10,.68-9.22.68-9.22l-1.5-24.87-1-12.37s-1.25,9.08-2.06,17.19c-.71,7.07-2.42,13.46-4.33,26.63-1.65,11.42-4.34,34.36-4.34,34.36-4.78,2.78-11.28.47-11.28.47S170.56,338.43,171.86,328.52Z" />
        <path
           id="_Контур_5"
           data-name="&lt;Контур&gt;"
           class="cls-16"
           d="M178.47,177.36c3.44.17,6,1.06,6.44,0a45.63,45.63,0,0,0,.78-5.38c-.4-1-.74-2.07-.74-2.07-4.32-2.67-5.69-7.34-6.26-12.79-1-9.31,4.06-17.45,13.37-18.43,8.75-.91,15.18,5.24,16.9,13.68.93,4.17,2.77,12.05.28,18.91-1.39,3.83-3.19,6.87-5,7.47a43.12,43.12,0,0,1-5.18-.46h0s-.47,2.58-.79,4.24-.19,2.54,3.11,4.57-5,6.22-10.41,5.81-11.53-3.69-13.2-7.19C175.94,181.86,176.1,177.25,178.47,177.36Z" />
        <path
           id="_Контур_6"
           data-name="&lt;Контур&gt;"
           class="cls-21"
           d="M183.45,177.88c-.95,2.38,1.47,5.29,7.94,7.32s7.05-.58,7.05-.58,9.49,4.32,12.58,6.48c3.89,2.71,5.61,10.57,6.13,23.83.61,15.35.66,38.12.15,42.05,0,0-7.26,7.23-16.55,6.47s-24.91-9-28.7-15.33c.1-13.46,1.67-15.65-.51-23.4-5-17.75-7.61-25-5.19-36.81,2-9.72,4.8-10.93,8.64-10.83A78.14,78.14,0,0,1,183.45,177.88Z" />
        <path
           id="_Контур_7"
           data-name="&lt;Контур&gt;"
           class="cls-16"
           d="M231.75,227.62c-7.62,1.92-9.41-2.88-10.41-6.86-2.43-9.64-3.74-18.34-5.54-23.81-2.13-6.45-4.36-7.48-7.5-8.74-3.68-1.47-6.84,1.64-5.62,9.85,1.45,9.71,3.35,16.53,7,28,.94,3,3.07,8.33,6.26,10.91,3.93,3.18,9.85,3,18.81.81,3.83-1,8-3.23,15.25-6.61,1.94-.9,3.45-1.5,7.17-3.24s7.6-4.63,9.56-7.45,2.21-4.16,1.81-4.8c-.5-.81-1.39-.63-2.43.56a21,21,0,0,1-5.48,5.07s2.4-2.49,3.71-4.1a20.38,20.38,0,0,0,2.88-4.71c.69-1.65-.73-3.89-1.81-2.72s-1.59,2.38-3.56,4.74a20.85,20.85,0,0,1-3.53,3.37,39,39,0,0,0,3.25-5.24,8.69,8.69,0,0,0,1.19-4.73c-.06-.86-1.27-1.88-2.41-.25-1,1.46-1.7,3.76-4.1,6.25-1.74,1.81-3.22,2.85-3.26,2.35s1.05-1.5,1.67-3.6,0-4.33-1.16-4.57-.94-.18-1.87,1.79-2.37,3.42-3.47,6.3A12.91,12.91,0,0,1,245,221.6C243.14,223.59,239,225.8,231.75,227.62Z" />
        <path
           id="_Контур_8"
           data-name="&lt;Контур&gt;"
           class="cls-17"
           d="M205.48,186.9c5.09-.75,8.69,1.54,10.94,9.25s3.81,14,3.81,14a13.84,13.84,0,0,1-8.52,5.67c-6.09,1.47-8.28-1.44-8.28-1.44s-1.69-8.08-2.74-13.58S199.18,187.83,205.48,186.9Z" />
        <path
           class="cls-18"
           d="M208.67,151.18s8-12.22-9.39-14.71c-12.57-1.8-20.64,6.27-21.57,15-.9,8.37,4.26,17.06,8,20.51,1.82.65,5.73,1,10.86-1.31a60.3,60.3,0,0,0,.24-6.86S190.67,151,208.67,151.18Z"
           id="path222" />
      </g>
      <g
         id="Men_14">
        <path
           class="cls-22"
           d="M337.33,327.68l-2.59-1.5-.86-.5a5.32,5.32,0,0,0,2.2-1.05C336.35,324.6,336.88,326,337.33,327.68Z"
           id="path225" />
        <path
           class="cls-23"
           d="M336.26,325.44a5.8,5.8,0,0,1-1.52.74L327.55,322c-1.48-6.91-4.81-22.53-6.59-30.63-2.32-10.57-2.72-16.67-3.92-23.22-1.45-7.93-4.59-44.94-4.59-44.94l-1.24.07-3.34,41.77a47.31,47.31,0,0,1,2.1,9.49c.72,5.35-.28,27.56-.74,36.89h0l-7.6-4.4-3.06-1.76C296.12,291.54,292,267.83,292,263c0-4.56.79-64.74.79-64.74l43.45,11.14c-.14,4.72-1.62,25.21-2.27,36.07s-.81,24.15-.81,24.15,1.87,7.9,3.08,17.2S336.26,325.44,336.26,325.44Z"
           id="path227" />
        <path
           id="_Контур_9"
           data-name="&lt;Контур&gt;"
           class="cls-16"
           d="M325,118.15s-.53,10.29-.3,11.2,4.72,3.93,6,5-7.12,9.39-11.21,11.27-17.08-3.07-17.31-9.45,2.22-11.72,4.21-12S325,118.15,325,118.15Z" />
        <path
           class="cls-16"
           d="M296.76,137.24c-.6-4.53,2.38-8.84-.52-12.46-10.16,10-8.86,36.32-11.17,53.18-7.55,7.89-22.71,15.66-27,17.58-.78.36-1.46.74-1.3,1.57.61,3.29,1.56,4.54,3.53,7.72,10-4.33,17.27-6.81,29.8-18.72a28.2,28.2,0,0,0,3.18-4.17C296.89,171.19,297.79,145.09,296.76,137.24Z"
           id="path230" />
        <path
           id="_Контур_10"
           data-name="&lt;Контур&gt;"
           class="cls-21"
           d="M326.1,131.13s-7.47,11.13-17.9,12.17c-3.28-3.23-3.58-14.76,1-18.44,0,0-4.18-3.38-7-2.72a14.76,14.76,0,0,0-6.43,8.21A67.15,67.15,0,0,0,292,154.17c.18,10.92,0,44.29,0,44.29s1.47,7.06,10.89,12.31,16.43,5.76,22.82,4.27c5.27-1.23,9.63-3.09,11.45-6.92-.47-7.65-3.89-27.63-2.61-37.25s3.31-16.81,3.83-24.59-1-7.63-4.93-10.4A61.07,61.07,0,0,0,326.1,131.13Z" />
        <path
           id="_Контур_11"
           data-name="&lt;Контур&gt;"
           class="cls-16"
           d="M301.65,102.8h0c1.23-8,7-14,15.23-13.59A15.84,15.84,0,0,1,325,118.14a16.28,16.28,0,0,1-1.28,3.5c-2.91,3.41-11.73,5.51-14.26,5.15-3.25-.47-5-1.82-6.56-5.38C300.12,115.14,301,106.75,301.65,102.8Z" />
        <path
           class="cls-24"
           d="M325,118.14h0l-.76-7s5.7-14.74-7.76-11.91c-8.88,1.87-11.11,2.68-13.82-3.28s6.83-11.32,18.15-9.83a15.64,15.64,0,0,1,14,15.87C334.47,106.41,333.3,115.28,325,118.14Z"
           id="path234" />
        <polygon
           class="cls-10"
           points="287.1 180.41 255.56 162.2 287.1 143.99 318.64 162.2 287.1 180.41"
           id="polygon236" />
        <polygon
           class="cls-11"
           points="316.51 199.43 287.1 216.41 287.1 182.45 316.51 165.47 316.51 199.43"
           id="polygon238" />
        <polygon
           class="cls-12"
           points="287.1 216.41 257.69 199.43 257.69 165.47 287.1 182.45 287.1 216.41"
           id="polygon240" />
        <polygon
           class="cls-13"
           points="257.69 165.47 257.69 174.35 287.1 191.14 287.1 182.48 257.69 165.47"
           id="polygon242" />
        <polygon
           class="cls-13"
           points="316.51 165.47 316.51 174.99 287.1 191.14 287.1 182.48 316.51 165.47"
           id="polygon244" />
        <polygon
           class="cls-12"
           points="255.56 162.2 255.56 171.62 287.1 189.58 287.1 180.41 255.56 162.2"
           id="polygon246" />
        <polygon
           class="cls-11"
           points="287.1 189.58 318.64 172.36 318.64 162.2 287.1 180.41 287.1 189.58"
           id="polygon248" />
        <path
           class="cls-16"
           d="M340.71,141.69c-3.91-1.12-.93-.19-3.91-1.12-10.16,10-8.89,27-11.2,43.91-5.6,9.27-26.42,21.84-26.42,21.84-.26,1.79.37,2.33,2.62,6,10-4.33,18.43-8.06,31-20,.49-.47,1.22-.59,1.43-1.24C337.77,180.32,341.74,149.53,340.71,141.69Z"
           id="path250" />
        <path
           class="cls-16"
           d="M304.42,206.69c-.5-1.76-1.78-1.33-3.21-.88a8.47,8.47,0,0,1-4.92.42c-1.36-.42-2.35-1.6-3.51-2.38a4.59,4.59,0,0,0-2.22-.63c.07.45.76,3.08.76,3.08s-7.27.07-8-.08a1.22,1.22,0,0,0-1.16,2c-.16,0-.33,0-.49-.07-1.49-.33-2.12,2-.63,2.29.4.09.81.13,1.22.18-1,.38-1.22,2,0,2.22l.38.06a1.11,1.11,0,0,0,.53.08l.23,0a1.31,1.31,0,0,0,1.1,1.54c3.55.46,8.78,1.88,12-1.05a20,20,0,0,0,6.44-1.74C305,210.79,305,208.8,304.42,206.69Z"
           id="path252" />
        <path
           class="cls-16"
           d="M268.1,198.89c-.17,0-.33,0-.5,0a1.22,1.22,0,0,0-.69-2.21c-.76,0-8.25-1.56-8.25-1.56l-.9-3.08c-.05-.17-1.3.61-1.34.65a5.05,5.05,0,0,0-2.26,3.74,8,8,0,0,0,2.15,5.78,7.42,7.42,0,0,0,5.07,2.2c.91.06,1.78.1,2.57.16a1.29,1.29,0,0,0,1.39-1.27l.23,0a1.37,1.37,0,0,0,.55,0l.38,0c1.27,0,1.37-1.58.5-2.16.41,0,.82.08,1.23.08C269.76,201.25,269.63,198.88,268.1,198.89Z"
           id="path254" />
        <path
           class="cls-17"
           d="M292.52,144s-3.83-.19-5.42-2.43c.29-3.82,5.18-18.34,15-19.42a18.17,18.17,0,0,0-6.15,7.42C294.19,133.94,292.52,144,292.52,144Z"
           id="path256" />
        <path
           class="cls-17"
           d="M342.48,163.18s-9.8,3.38-16.7-2.3c-.75-1.3,4-18,4-18s4.11-8.52,10.55-5.13S342.48,163.18,342.48,163.18Z"
           id="path258" />
      </g>
      <ellipse
         class="cls-15"
         cx="27.04"
         cy="375.02"
         rx="20.82"
         ry="12.02"
         id="ellipse261" />
      <ellipse
         class="cls-25"
         cx="30.01"
         cy="372.79"
         rx="20.82"
         ry="12.02"
         id="ellipse263" />
      <polygon
         class="cls-25"
         points="2.14 331.68 9.42 373.63 50.78 373.63 57.89 331.99 2.14 331.68"
         id="polygon265" />
      <ellipse
         class="cls-26"
         cx="30.01"
         cy="331.16"
         rx="27.9"
         ry="16.11"
         id="ellipse267" />
      <path
         class="cls-27"
         d="M30,343.72c-6.84,0-13.21-1.51-18-4.24-4.07-2.35-6.4-5.38-6.4-8.32s2.33-6,6.4-8.31c4.74-2.74,11.11-4.24,18-4.24s13.22,1.5,18,4.24c4.06,2.35,6.39,5.38,6.39,8.31s-2.33,6-6.39,8.32C43.23,342.21,36.85,343.72,30,343.72Z"
         id="path269" />
      <path
         class="cls-28"
         d="M42,318.47s-.55-34-12-46c-14,12.32-11.78,46.08-11.78,46.08l12,21.68v0C31.78,340.29,42,318.47,42,318.47Z"
         id="path271" />
      <path
         class="cls-29"
         d="M30.18,340.21s-6.36-40.74-30-56C.17,284.16-4.06,340,30.18,340.21Z"
         id="path273" />
      <path
         class="cls-29"
         d="M30,340.21s5.74-40,28.79-54.36C58.8,285.85,64.25,340,30,340.21Z"
         id="path275" />
    </g>
  </g>
  <path
     style="opacity:1;fill:#000000;fill-opacity:0;stroke:#e4b4b0;stroke-width:0.60240966;stroke-opacity:0.22758011"
     d="m 330.94294,324.02738 c -1.72462,-1.00322 -3.26671,-2.27912 -3.42688,-2.83534 -1.39373,-4.84012 -7.88797,-37.18752 -9.33424,-46.49324 -1.5561,-10.01238 -3.61127,-28.34156 -5.21885,-46.54484 -0.38737,-4.38632 -1.14313,-6.35144 -1.74893,-4.54756 -0.14614,0.43515 -0.97077,9.82814 -1.8325,20.87329 -1.54262,19.77222 -1.55007,20.15334 -0.48305,24.6988 0.8847,3.76879 1.06517,6.94011 0.98264,17.26729 -0.0556,6.95783 -0.28309,15.40112 -0.50552,18.76287 l -0.40442,6.11227 -4.84006,-2.85641 c -2.66203,-1.57103 -5.04415,-3.23721 -5.29359,-3.70263 -0.44937,-0.83844 -3.95495,-21.03804 -5.71328,-32.92057 -0.98828,-6.67871 -1.22439,-27.69527 -0.5198,-46.26891 l 0.38963,-10.27097 2.46997,-0.9389 c 5.02753,-1.91108 9.02142,-2.87659 9.67059,-2.33782 0.35787,0.29699 2.7271,1.23703 5.26497,2.08897 7.96759,2.67463 17.63075,1.69887 23.65383,-2.3885 l 2.26091,-1.5343 -0.36881,4.09131 c -1.1414,12.66177 -2.31926,35.17161 -2.3891,45.65757 -0.0683,10.24981 0.12765,13.17218 1.31255,19.57831 1.6418,8.87637 2.25035,23.98323 1.50428,37.34247 -0.56012,10.02946 -0.54455,10.00892 -5.43034,7.16684 z"
     id="path1090"
     inkscape:connector-curvature="0" />
  <path
     style="opacity:1;fill:#000000;fill-opacity:0;stroke:#e4b4b0;stroke-width:0.60240966;stroke-opacity:0.22758011"
     d="m 331.36777,324.07766 c -1.49096,-0.97039 -2.917,-1.8385 -3.16897,-1.92914 -0.75162,-0.27035 -8.09854,-35.50156 -10.03233,-48.10874 -0.98624,-6.42971 -2.48644,-18.87412 -3.33378,-27.65424 -0.84734,-8.78012 -1.70697,-17.65813 -1.91029,-19.72891 -0.33905,-3.45307 -0.88823,-4.53332 -1.66539,-3.27584 -0.1663,0.26907 -1.03008,9.55371 -1.91952,20.63253 -1.39907,17.42682 -1.51492,20.63075 -0.85905,23.75776 1.40733,6.70981 1.62489,11.99311 1.12604,27.34504 -0.27338,8.41326 -0.59741,15.39719 -0.72007,15.51986 -0.12266,0.12265 -2.41837,-1.02081 -5.10159,-2.54102 -5.64448,-3.19795 -4.80203,-1.091 -7.93364,-19.84195 -4.01017,-24.01151 -4.05569,-24.81717 -3.24004,-57.3347 l 0.39553,-15.76844 4.27192,-1.30228 c 2.34955,-0.71626 4.7974,-1.50189 5.43968,-1.74585 0.76449,-0.29039 2.63681,0.19128 5.42168,1.39477 3.91574,1.69219 4.80466,1.83939 11.18163,1.85164 7.51469,0.0144 11.10187,-0.87994 14.91938,-3.71971 l 1.96757,-1.46365 -0.3267,3.20074 c -0.70061,6.86398 -2.14773,32.10907 -2.4971,43.56218 -0.34096,11.17719 -0.25514,12.70145 1.18703,21.08434 1.83603,10.67229 2.43194,23.32373 1.77309,37.64373 -0.51951,11.29148 -0.53243,11.31335 -4.97508,8.42188 z"
     id="path1092"
     inkscape:connector-curvature="0" />
  <path
     style="opacity:1;fill:#000000;fill-opacity:0;stroke:#e4b4b0;stroke-width:0.60240966;stroke-opacity:0.22758011"
     d="m 196.22721,378.51405 c -0.22088,-0.22088 -0.4016,-1.19868 -0.4016,-2.17288 0,-1.3098 -0.2304,-1.68286 -0.88433,-1.43193 -0.48637,0.18664 -1.02549,0.11092 -1.19804,-0.16826 -0.17255,-0.27919 0.2254,-0.6486 0.88432,-0.82091 1.15049,-0.30087 1.1993,-0.85953 1.22962,-14.07452 0.0174,-7.56866 0.2615,-18.50519 0.54251,-24.30338 0.28368,-5.85335 0.27951,-13.89133 -0.009,-18.07229 -0.82291,-11.90949 -2.01398,-25.47512 -2.18729,-24.91212 -0.0871,0.28299 -0.55317,3.632 -1.03567,7.44224 -0.4825,3.81024 -1.97468,13.36207 -3.31596,21.22629 -1.34127,7.86422 -3.29901,21.41843 -4.35053,30.12048 -1.24103,10.27031 -2.2036,16.13896 -2.7433,16.72552 -0.60022,0.65231 -2.07465,0.89681 -5.30173,0.87916 -2.45866,-0.0134 -4.65074,-0.20491 -4.87129,-0.42546 -0.22055,-0.22055 -0.54202,-8.76335 -0.71438,-18.98401 -0.31788,-18.84925 0.12461,-25.14362 2.37434,-33.77528 0.94784,-3.63663 -0.3336,-28.11524 -2.30756,-44.07995 -1.40897,-11.3953 -1.64522,-21.05298 -0.55805,-22.81207 0.17001,-0.27508 1.64005,0.7827 3.26675,2.35063 5.32621,5.13378 16.25503,10.60836 23.92793,11.98623 5.77055,1.03626 10.16798,-0.13061 16.67976,-4.42601 l 1.65662,-1.09277 -10e-4,2.62952 c -0.002,3.64823 -2.26933,48.77631 -3.02319,60.15965 -0.3401,5.13554 -1.30216,13.56893 -2.13789,18.74087 -0.83574,5.17193 -2.39374,15.87976 -3.46221,23.79518 l -1.94269,14.39166 -2.09599,0.71901 c -2.28539,0.78398 -7.37644,1.02865 -8.01968,0.3854 z"
     id="path1094"
     inkscape:connector-curvature="0" />
  <path
     style="opacity:1;fill:#000000;fill-opacity:0;stroke:#e4b4b0;stroke-width:0.60240966;stroke-opacity:0.22758011"
     d="m 195.82561,376.80723 c 0,-2.26104 -0.28799,-2.42719 -2.65031,-1.52904 -0.97558,0.37091 -1.65275,0.37091 -1.88199,0 -0.19695,-0.31867 0.20008,-0.57939 0.88229,-0.57939 0.6822,0 1.78254,-0.54217 2.44519,-1.20482 1.12351,-1.12352 1.20666,-2.02808 1.23212,-13.40362 0.015,-6.70934 0.25619,-17.3494 0.53594,-23.64458 0.27974,-6.29518 0.28023,-14.91606 0.001,-19.1575 -0.72871,-11.07233 -1.92621,-25.16334 -2.12183,-24.96772 -0.0919,0.0919 -0.46309,2.60289 -0.82481,5.57992 -0.36171,2.97702 -0.91944,6.90374 -1.23938,8.72603 -2.80163,15.95706 -4.66102,28.24308 -6.56425,43.37349 -2.16066,17.17689 -2.28456,17.79727 -3.70545,18.55416 -1.46415,0.77992 -8.63944,0.68207 -9.45039,-0.12888 -0.21051,-0.21051 -0.39864,-9.79623 -0.41807,-21.3016 -0.0337,-19.93625 0.0328,-21.23013 1.41546,-27.54537 1.44288,-6.59036 1.44684,-6.707 0.72645,-21.38554 -0.39839,-8.11747 -1.41486,-20.31626 -2.25882,-27.10843 -1.42608,-11.477 -1.60614,-18.94244 -0.52485,-21.76025 0.23547,-0.61361 1.22948,-0.003 3.53516,2.17017 4.05374,3.82149 10.95819,7.77162 17.72048,10.13814 8.86677,3.103 15.50634,2.3289 22.45334,-2.6178 l 1.77697,-1.26532 -0.001,2.30006 c -0.002,3.36746 -2.30101,48.87946 -3.03804,60.13138 -0.34724,5.30121 -1.41832,14.51808 -2.38018,20.48193 -0.96186,5.96386 -2.50296,16.64396 -3.42466,23.73357 l -1.67581,12.89019 -1.94968,0.81463 c -1.07232,0.44804 -3.44934,0.81462 -5.28227,0.81462 h -3.3326 z"
     id="path1096"
     inkscape:connector-curvature="0" />
  <path
     style="opacity:1;fill:#00adb5;fill-opacity:0.88709676;stroke:#e4b4b0;stroke-width:0.60240966;stroke-opacity:0.22758011"
     d="m 330.69183,323.51821 c -1.67488,-1.04529 -2.93374,-2.33284 -3.15921,-3.23119 -2.88129,-11.47996 -8.79406,-42.40429 -10.32907,-54.02196 -0.78016,-5.90464 -4.51047,-41.35161 -4.51047,-42.86041 0,-0.2822 -0.3692,-0.51308 -0.82043,-0.51308 -0.94835,0 -1.00327,0.46191 -2.86473,24.0928 -1.24492,15.80392 -1.25938,16.84259 -0.31579,22.67244 1.39988,8.64896 1.14119,40.58415 -0.32875,40.58415 -0.29065,0 -2.53144,-1.14816 -4.97954,-2.55147 -3.33416,-1.91123 -4.51986,-2.93159 -4.72521,-4.06627 -2.75075,-15.1998 -5.40381,-32.63655 -5.86748,-38.56298 -0.59122,-7.55667 -0.12122,-48.19513 0.57023,-49.30434 0.19568,-0.31392 2.70633,-1.36536 5.57921,-2.33654 4.5482,-1.53753 5.40479,-1.66375 6.6265,-0.97646 7.7185,4.34212 22.61529,4.13565 28.37284,-0.39325 0.84345,-0.66345 1.63188,-1.20628 1.75207,-1.20628 0.12019,0 0.0164,2.91416 -0.23059,6.47591 -2.62175,37.80324 -2.82069,50.35219 -0.96216,60.69277 1.12584,6.26398 1.32235,9.88529 1.47217,27.12941 l 0.1729,19.9005 -1.33405,0.107 c -0.73374,0.0589 -2.58703,-0.67499 -4.11844,-1.63075 z"
     id="path1098"
     inkscape:connector-curvature="0" />
  <path
     style="opacity:1;fill:#00adb5;fill-opacity:0.88709675;stroke:#e4b4b0;stroke-width:0.60240966;stroke-opacity:0.22758011"
     d="m 195.82561,376.88645 c 0,-2.50516 -0.0299,-2.51485 -3.79882,-1.23066 -4.24689,1.44706 -4.77146,0.67869 -0.58001,-0.84959 l 3.65275,-1.33186 0.34982,-4.65886 c 0.54062,-7.19988 1.30064,-39.41506 1.10476,-46.82753 -0.0963,-3.64458 -0.57071,-11.45459 -1.05422,-17.35559 -0.48351,-5.90099 -0.8791,-11.16455 -0.8791,-11.69679 0,-2.66156 -0.70216,0.3709 -1.50831,6.51403 -0.49626,3.78164 -1.98002,13.38173 -3.29725,21.33353 -2.40883,14.54156 -6.03782,41.5025 -6.03782,44.85694 0,2.76112 -2.10187,3.83535 -6.90583,3.52946 -2.14021,-0.13628 -4.08318,-0.43967 -4.3177,-0.67419 -0.23453,-0.23453 -0.44116,-9.98138 -0.45918,-21.65967 -0.0317,-20.53815 0.0165,-21.45019 1.47254,-27.85977 l 1.50531,-6.6265 -0.74514,-14.15663 c -0.40982,-7.78614 -1.45922,-20.10428 -2.33198,-27.37365 -1.46302,-12.1857 -1.61312,-18.78045 -0.49383,-21.69726 0.14102,-0.36751 1.68101,0.6963 3.42219,2.36401 5.46627,5.23561 16.05358,10.47705 23.98479,11.87411 5.27061,0.9284 10.91958,-0.61988 16.42758,-4.50251 l 1.73946,-1.22616 -0.39647,7.78073 c -0.21806,4.2794 -0.79558,15.91326 -1.28338,25.85302 -1.45133,29.57352 -2.12251,38.00789 -3.90692,49.09639 -0.93308,5.79819 -2.44483,16.37048 -3.35945,23.49397 -0.93696,7.29747 -1.99522,13.31889 -2.42404,13.79265 -0.46848,0.51757 -2.51395,0.95333 -5.32042,1.13344 l -4.55933,0.29259 z"
     id="path1100"
     inkscape:connector-curvature="0" />
  <path
     style="opacity:1;fill:#222831;fill-opacity:0.95161289;stroke:#e4b4b0;stroke-width:0.60240966;stroke-opacity:0.22758011"
     d="m 195.82561,376.81802 v -2.25331 l -2.25904,0.34762 -2.25904,0.34762 1.90789,-0.86434 c 2.16884,-0.98255 2.26097,-1.48974 2.89941,-15.96188 0.98662,-22.36454 -0.26508,-67.69482 -1.82614,-66.13376 -0.60589,0.60589 -9.43515,60.19938 -10.19989,68.84461 -0.57205,6.46697 -0.689,6.76008 -3.00153,7.52329 -2.33302,0.76996 -7.58424,0.24463 -8.29461,-0.8298 -0.24342,-0.36817 -0.44673,-9.97922 -0.45181,-21.3579 -0.009,-19.20704 0.0872,-21.12665 1.33724,-26.80723 0.97834,-4.44589 1.30518,-7.68334 1.19547,-11.84161 -0.23086,-8.75025 -1.28234,-23.20566 -2.57766,-35.43689 -1.22592,-11.57597 -1.52915,-22.10081 -0.65234,-22.6427 0.28421,-0.17565 2.38511,1.18233 4.66867,3.01774 7.01619,5.63926 19.81334,11.08594 26.04677,11.08594 2.55999,0 8.61737,-2.07138 11.64322,-3.98152 1.33053,-0.83993 2.52852,-1.41776 2.66221,-1.28407 0.31814,0.31814 -2.56654,55.8434 -3.38759,65.20535 -0.34869,3.9759 -1.98003,16.58133 -3.62522,28.01205 -3.72748,25.89857 -3.60272,25.16836 -4.41532,25.84269 -0.37166,0.30842 -2.64112,0.75441 -5.04322,0.99109 l -4.36747,0.43033 z"
     id="path1106"
     inkscape:connector-curvature="0" />
  <path
     style="opacity:1;fill:#222831;fill-opacity:0.95161288;stroke:#e4b4b0;stroke-width:0.60240966;stroke-opacity:0.22758011"
     d="m 325.01421,116.82173 c -0.22032,-0.35648 -0.20736,-3.86394 0.0288,-7.79436 0.42788,-7.12143 0.42402,-7.15156 -1.11362,-8.6892 -1.84219,-1.842197 -3.82581,-1.954506 -10.94826,-0.619878 -5.80386,1.087548 -7.53478,0.667238 -9.32166,-2.263517 -2.39212,-3.923438 -1.03739,-7.11269 4.0339,-9.496477 3.52794,-1.658329 10.82792,-2.272273 15.0058,-1.262019 4.36939,1.056566 8.22386,4.142049 10.18707,8.15472 1.47782,3.020545 1.61879,3.853125 1.37258,8.106241 -0.34227,5.91263 -2.51243,10.79054 -5.79217,13.01918 -2.4611,1.67236 -2.87818,1.77448 -3.45243,0.84531 z"
     id="path1108"
     inkscape:connector-curvature="0" />
  <path
     style="opacity:1;fill:#222831;fill-opacity:0.95161288;stroke:#e4b4b0;stroke-width:0.60240966;stroke-opacity:0.22758011"
     d="m 184.50455,170.23074 c -3.63823,-4.14371 -6.72784,-11.77491 -6.74408,-16.65755 -0.0189,-5.68104 3.51638,-11.69929 8.62776,-14.68737 6.39846,-3.74051 18.0585,-2.71145 22.28963,1.96718 1.53762,1.70023 1.92282,5.41437 0.83226,8.02447 -0.86143,2.06168 -1.04413,2.16094 -4.56493,2.4802 -4.18793,0.37974 -7.34886,2.04162 -8.44058,4.43768 -0.52003,1.14135 -0.61291,3.50099 -0.31999,8.13005 l 0.41269,6.52198 -1.74128,0.67715 c -0.9577,0.37243 -3.24337,0.81935 -5.07928,0.99314 -3.24568,0.30726 -3.3915,0.25507 -5.2722,-1.88693 z"
     id="path1110"
     inkscape:connector-curvature="0" />
  <path
     style="opacity:1;fill:#222831;fill-opacity:0.95161288;stroke:#e4b4b0;stroke-width:0.60240966;stroke-opacity:0.22758011"
     d="m 289.57927,83.283133 c -3.94963,-7.883675 -7.63398,-16.477134 -9.68887,-22.59855 -5.1091,-15.219742 3.02192,-24.431611 14.68846,-16.640992 6.44698,4.305125 11.90542,12.978686 13.31831,21.163012 0.95159,5.512195 0.083,8.896326 -3.64615,14.206498 -2.98224,4.246559 -9.26033,10.345935 -10.64907,10.345935 -0.42808,0 -2.23829,-2.914156 -4.02268,-6.475903 z m 10.12784,-14.742474 c 2.93439,-4.18943 -1.32143,-14.207184 -7.22592,-17.009049 -5.93532,-2.816491 -8.61563,3.447532 -4.7577,11.118992 3.09425,6.152897 9.5701,9.335836 11.98362,5.890057 z"
     id="path1116"
     inkscape:connector-curvature="0" />
</svg>
