<?xml version="1.0" encoding="UTF-8" standalone="no"?>
<svg
   xmlns:dc="http://purl.org/dc/elements/1.1/"
   xmlns:cc="http://creativecommons.org/ns#"
   xmlns:rdf="http://www.w3.org/1999/02/22-rdf-syntax-ns#"
   xmlns:svg="http://www.w3.org/2000/svg"
   xmlns="http://www.w3.org/2000/svg"
   xmlns:sodipodi="http://sodipodi.sourceforge.net/DTD/sodipodi-0.dtd"
   xmlns:inkscape="http://www.inkscape.org/namespaces/inkscape"
   viewBox="0 0 429.12 500"
   version="1.1"
   id="svg270"
   sodipodi:docname="onl.svg"
   inkscape:version="0.92.4 (f8dce91, 2019-08-02)">
  <metadata
     id="metadata274">
    <rdf:RDF>
      <cc:Work
         rdf:about="">
        <dc:format>image/svg+xml</dc:format>
        <dc:type
           rdf:resource="http://purl.org/dc/dcmitype/StillImage" />
      </cc:Work>
    </rdf:RDF>
  </metadata>
  <sodipodi:namedview
     pagecolor="#ffffff"
     bordercolor="#666666"
     borderopacity="1"
     objecttolerance="10"
     gridtolerance="10"
     guidetolerance="10"
     inkscape:pageopacity="0"
     inkscape:pageshadow="2"
     inkscape:window-width="1920"
     inkscape:window-height="1025"
     id="namedview272"
     showgrid="false"
     inkscape:zoom="1.66"
     inkscape:cx="33.837106"
     inkscape:cy="247.76928"
     inkscape:window-x="0"
     inkscape:window-y="27"
     inkscape:window-maximized="1"
     inkscape:current-layer="svg270" />
  <defs
     id="defs9">
    <style
       id="style2">.cls-1{fill:#d6d8e5;opacity:0.4;}.cls-2{fill:#efda86;}.cls-3{fill:#d1b66b;}.cls-4{fill:#e2c979;}.cls-11,.cls-5{opacity:0.1;}.cls-6{fill:#b1b4c4;}.cls-7{fill:#616e84;}.cls-8{fill:#20232d;}.cls-11,.cls-9{fill:#fff;}.cls-10{fill:#2b303f;}.cls-12{fill:#757b89;}.cls-13{fill:#e9eaf2;}.cls-14{fill:#d9dae2;}.cls-15{fill:#e26161;}.cls-16{fill:#f4f5f9;}.cls-17{opacity:0.15;}.cls-18{fill:#c65555;}.cls-19{fill:#ff6c6c;}.cls-20{fill:#dd6262;}.cls-21{fill:#ffcea9;}.cls-22{fill:#ededed;}.cls-23{fill:#2b2a30;}.cls-24{fill:#9c73ff;}.cls-25{fill:#8c50ff;}.cls-26{fill:#f4f4f4;}.cls-27{fill:#3a2c6d;}.cls-28{opacity:0.5;fill:url(#Безымянный_градиент_15);}.cls-29{fill:#eff0f9;}.cls-30{fill:#f9cb07;}</style>
    <linearGradient
       id="Безымянный_градиент_15"
       x1="-2115.87"
       y1="3245.53"
       x2="-2115.87"
       y2="3226.31"
       gradientTransform="matrix(0.87, 0.5, -1, 0.58, 5178.35, -503.07)"
       gradientUnits="userSpaceOnUse">
      <stop
         offset="0.21"
         stop-color="#fff"
         stop-opacity="0"
         id="stop4" />
      <stop
         offset="1"
         stop-color="#fff"
         stop-opacity="0.2"
         id="stop6" />
    </linearGradient>
  </defs>
  <title
     id="title11">Online_shopping_SVG</title>
  <g
     id="Слой_2"
     data-name="Слой 2">
    <g
       id="Слой_1-2"
       data-name="Слой 1">
      <polygon
         class="cls-1"
         points="167.55 279.29 132.92 259.41 170.07 237.97 204.7 257.85 167.55 279.29"
         id="polygon13" />
      <polygon
         class="cls-2"
         points="171.43 234.65 134.29 213.2 171.43 191.75 208.58 213.2 171.43 234.65"
         id="polygon15" />
      <polygon
         class="cls-3"
         points="206.07 257.04 171.43 277.04 171.43 237.04 206.07 217.05 206.07 257.04"
         id="polygon17" />
      <polygon
         class="cls-4"
         points="171.43 277.04 136.8 257.04 136.8 217.05 171.43 237.04 171.43 277.04"
         id="polygon19" />
      <polygon
         class="cls-5"
         points="136.8 217.05 136.8 227.51 171.43 247.28 171.43 237.09 136.8 217.05"
         id="polygon21" />
      <polygon
         class="cls-5"
         points="206.07 217.05 206.07 228.26 171.43 247.28 171.43 237.09 206.07 217.05"
         id="polygon23" />
      <polygon
         class="cls-4"
         points="134.29 213.2 134.29 224.29 171.43 245.45 171.43 234.65 134.29 213.2"
         id="polygon25" />
      <polygon
         class="cls-3"
         points="171.43 245.45 208.58 225.16 208.58 213.2 171.43 234.65 171.43 245.45"
         id="polygon27" />
      <path
         class="cls-1"
         d="M307,370,196.28,306.24a4.09,4.09,0,0,1,.17-7.17l13.93-7.18a4.11,4.11,0,0,1,3.91.09l114.45,65.9a4.08,4.08,0,0,1-.17,7.17l-10.11,5.21A11.94,11.94,0,0,1,307,370Z"
         id="path29" />
      <path
         class="cls-6"
         d="M313.8,358l-94.36-54.48c-8-4.61-14.47-17-14.47-27.65V12.68C205,2,211.45-2.88,219.44,1.74L313.8,56.21c8,4.62,14.47,17,14.47,27.65v263.2C328.27,357.72,321.79,362.61,313.8,358Z"
         id="path31" />
      <polygon
         class="cls-6"
         points="315.42 362.74 322.89 358.96 315.72 346.67 315.42 362.74"
         id="polygon33" />
      <polygon
         class="cls-6"
         points="203.51 4.36 210.39 0.75 209 10.9 203.51 4.36"
         id="polygon35" />
      <path
         class="cls-7"
         d="M307.78,361l-94.35-54.48c-8-4.61-14.47-17-14.47-27.65V15.69C199,5,205.44.13,213.43,4.74l94.35,54.48c8,4.62,14.48,17,14.48,27.65v263.2C322.26,360.72,315.78,365.62,307.78,361Z"
         id="path37" />
      <path
         class="cls-8"
         d="M321.25,87.54V350.73c0,10.67-6.47,15.56-14.47,10.95l-37-21.36-11.51-6.65L212.42,307.2c-8-4.62-14.46-17-14.46-27.65V16.36C198,5.69,204.43.8,212.42,5.41l94.36,54.48C314.78,64.51,321.25,76.88,321.25,87.54Z"
         id="path39" />
      <path
         class="cls-9"
         d="M314.44,84.87V341.21c0,6.46-4.53,9.08-10.11,5.84l-5-2.9-17.14-9.89L274.82,330l-2.6-1.51-.87-.51L265,324.33l-18.45-10.64h0l-7.6-4.39,0,0-3.08-1.78-18.4-10.62-2.51-1.45c-5.6-3.23-10.12-11.08-10.12-17.55V21.54c0-6.46,4.52-9.08,10.12-5.85L251.72,37v.1a17.43,17.43,0,0,0,7.88,13.66c4.36,2.5,7.89.47,7.89-4.55,0,0,0-.08,0-.11l36.85,21.27C309.91,70.56,314.44,78.41,314.44,84.87Z"
         id="path41" />
      <ellipse
         class="cls-10"
         cx="259.6"
         cy="44.4"
         rx="2.44"
         ry="4.23"
         transform="matrix(0.87, -0.5, 0.5, 0.87, 12.58, 135.76)"
         id="ellipse43" />
      <path
         class="cls-11"
         d="M259.6,45.85a2.77,2.77,0,0,1-1.25-2.17c0-.8.56-1.12,1.25-.72a2.75,2.75,0,0,1,1.26,2.17C260.86,45.93,260.3,46.25,259.6,45.85Z"
         id="path45" />
      <path
         class="cls-12"
         d="M325.08,122.17h0c-.77.45-1.39,0-1.39-1V109.9a3.32,3.32,0,0,1,1.39-2.66h0c.77-.45,1.39,0,1.39,1.05v11.22A3.32,3.32,0,0,1,325.08,122.17Z"
         id="path47" />
      <path
         class="cls-12"
         d="M325.08,140.56h0c-.77.44-1.39,0-1.39-1.05V128.28a3.35,3.35,0,0,1,1.39-2.66h0c.77-.44,1.39,0,1.39,1.06V137.9A3.33,3.33,0,0,1,325.08,140.56Z"
         id="path49" />
      <path
         class="cls-13"
         d="M293.84,172.51l-71-41c-3-1.74-5.46-6.41-5.46-10.44v-80c0-4,2.44-5.87,5.46-4.13l71,41c3,1.74,5.46,6.41,5.46,10.43v80C299.3,172.4,296.86,174.25,293.84,172.51Z"
         id="path51" />
      <path
         class="cls-13"
         d="M293.84,279.56l-71-41c-3-1.74-5.46-6.41-5.46-10.43v-80c0-4,2.44-5.87,5.46-4.13l71,41c3,1.74,5.46,6.41,5.46,10.44v80C299.3,279.45,296.86,281.3,293.84,279.56Z"
         id="path53" />
      <path
         class="cls-13"
         d="M299.31,302.46v41.69L274.82,330l-2.6-1.51-.87-.51L265,324.33l-18.45-10.64h0l-7.65-4.41-3.08-1.78-18.4-10.62v-41.7c0-4,2.45-5.86,5.46-4.12l71,41C296.86,293.77,299.31,298.44,299.31,302.46Z"
         id="path55" />
      <path
         class="cls-14"
         d="M279.71,106.47,270,89.64A4.5,4.5,0,0,0,268.45,88h0a1.66,1.66,0,0,0-.27-.13,2.2,2.2,0,0,0-.28-.18l-2.7-1.56c-.74-.43-1.43-.4-1.83.09-.86,1-2.8.91-4.94-.33a12.23,12.23,0,0,1-4.94-5.37,4.64,4.64,0,0,0-1.84-2.21L249,76.76a1.74,1.74,0,0,0-.27-.14,1.71,1.71,0,0,0-1.82-.33l-9.71,5.61c-.86.5-.86,2.09,0,3.57l5.31,9.2A4.53,4.53,0,0,0,244,96.31a1.56,1.56,0,0,0,1.55.15l1.22-.71v22.5A4.86,4.86,0,0,0,249,122L267.9,133c1.21.7,2.18.13,2.18-1.26v-22.5l1.23,2.12a4.42,4.42,0,0,0,1.54,1.63h0a1.56,1.56,0,0,0,1.55.15l5.31-3.07C280.56,109.54,280.56,108,279.71,106.47Z"
         id="path57" />
      <path
         class="cls-14"
         d="M275.6,209.26l-34.35-19.83a32.3,32.3,0,0,0-1.43,9.09V220l15.74,9.09,2.87-16.52,2.86,19.83L277,241.49V220A50,50,0,0,0,275.6,209.26Z"
         id="path59" />
      <polygon
         class="cls-14"
         points="275.6 202.65 241.25 182.82 241.25 187.78 275.6 207.61 275.6 202.65"
         id="polygon61" />
      <path
         class="cls-14"
         d="M282.17,334.26,274.82,330l-2.6-1.51-.87-.51L265,324.33l-18.45-10.64h0l-7.6-4.39V298.74c0-1.05.73-1.48,1.65-1a3.78,3.78,0,0,1,1.49,2l.31,1a14.86,14.86,0,0,0,6.06,7.94c3.67,2.12,6.67.39,6.67-3.86v-1.28c0-1.3.92-1.85,2-1.19a4,4,0,0,1,1.31,1.31l2.93,4.49L258.07,310l1.83,3.14,3.46-2,1.5,2.31-3.15,1.82,1.81,3.15,3.33-1.92,1.5,2.31-3,1.74,1.81,3.15,3.19-1.84a23.51,23.51,0,0,0,7.09,6.79l.58.32A10.51,10.51,0,0,1,282.17,334.26Z"
         id="path63" />
      <polygon
         class="cls-5"
         points="305.41 98.86 216.76 48 216.76 16.59 305.41 67.44 305.41 98.86"
         id="polygon65" />
      <polygon
         class="cls-15"
         points="198.5 45.32 187.58 39.01 217.07 16.95 227.99 23.25 198.5 45.32"
         id="polygon67" />
      <polygon
         class="cls-16"
         points="209.43 51.62 198.5 45.32 227.99 23.25 238.91 29.56 209.43 51.62"
         id="polygon69" />
      <polygon
         class="cls-15"
         points="220.35 57.93 209.43 51.62 238.91 29.56 249.83 35.86 220.35 57.93"
         id="polygon71" />
      <polygon
         class="cls-16"
         points="231.27 64.23 220.35 57.93 249.83 35.86 260.75 42.17 231.27 64.23"
         id="polygon73" />
      <polygon
         class="cls-15"
         points="242.19 70.54 231.27 64.23 260.75 42.17 271.67 48.47 242.19 70.54"
         id="polygon75" />
      <polygon
         class="cls-16"
         points="253.11 76.84 242.19 70.54 271.67 48.47 282.59 54.78 253.11 76.84"
         id="polygon77" />
      <polygon
         class="cls-15"
         points="264.03 83.15 253.11 76.84 282.59 54.78 293.51 61.08 264.03 83.15"
         id="polygon79" />
      <polygon
         class="cls-16"
         points="274.95 89.45 264.03 83.15 293.51 61.08 304.44 67.39 274.95 89.45"
         id="polygon81" />
      <path
         class="cls-15"
         d="M193.12,48.39c3,1.74,5.46.33,5.46-3.15l-10.92-6.31A12.09,12.09,0,0,0,193.12,48.39Z"
         id="path83" />
      <path
         class="cls-16"
         d="M204.05,54.69c3,1.75,5.46.33,5.46-3.15l-10.93-6.3A12.06,12.06,0,0,0,204.05,54.69Z"
         id="path85" />
      <path
         class="cls-15"
         d="M215,61c3,1.74,5.46.33,5.46-3.15l-10.92-6.31A12.06,12.06,0,0,0,215,61Z"
         id="path87" />
      <path
         class="cls-16"
         d="M225.89,67.31c3,1.74,5.46.32,5.46-3.16l-10.92-6.3A12.08,12.08,0,0,0,225.89,67.31Z"
         id="path89" />
      <path
         class="cls-15"
         d="M236.81,73.61c3,1.74,5.46.33,5.46-3.15l-10.92-6.31A12.06,12.06,0,0,0,236.81,73.61Z"
         id="path91" />
      <path
         class="cls-16"
         d="M247.73,79.92c3,1.74,5.46.33,5.46-3.16l-10.92-6.3A12.08,12.08,0,0,0,247.73,79.92Z"
         id="path93" />
      <path
         class="cls-15"
         d="M258.65,86.22c3,1.74,5.46.33,5.46-3.15l-10.92-6.31A12,12,0,0,0,258.65,86.22Z"
         id="path95" />
      <path
         class="cls-16"
         d="M269.57,92.53c3,1.74,5.46.33,5.46-3.16l-10.92-6.3A12.08,12.08,0,0,0,269.57,92.53Z"
         id="path97" />
      <g
         class="cls-17"
         id="g115">
        <path
           d="M193.12,48.39c3,1.74,5.46.33,5.46-3.15l-10.92-6.31A12.09,12.09,0,0,0,193.12,48.39Z"
           id="path99" />
        <path
           d="M204.05,54.69c3,1.75,5.46.33,5.46-3.15l-10.93-6.3A12.06,12.06,0,0,0,204.05,54.69Z"
           id="path101" />
        <path
           d="M215,61c3,1.74,5.46.33,5.46-3.15l-10.92-6.31A12.06,12.06,0,0,0,215,61Z"
           id="path103" />
        <path
           d="M225.89,67.31c3,1.74,5.46.32,5.46-3.16l-10.92-6.3A12.08,12.08,0,0,0,225.89,67.31Z"
           id="path105" />
        <path
           d="M236.81,73.61c3,1.74,5.46.33,5.46-3.15l-10.92-6.31A12.06,12.06,0,0,0,236.81,73.61Z"
           id="path107" />
        <path
           d="M247.73,79.92c3,1.74,5.46.33,5.46-3.16l-10.92-6.3A12.08,12.08,0,0,0,247.73,79.92Z"
           id="path109" />
        <path
           d="M258.65,86.22c3,1.74,5.46.33,5.46-3.15l-10.92-6.31A12,12,0,0,0,258.65,86.22Z"
           id="path111" />
        <path
           d="M269.57,92.53c3,1.74,5.46.33,5.46-3.16l-10.92-6.3A12.08,12.08,0,0,0,269.57,92.53Z"
           id="path113" />
      </g>
      <polygon
         class="cls-1"
         points="380.78 394.51 341.29 371.71 346.24 368.84 385.74 391.63 380.78 394.51"
         id="polygon117" />
      <polygon
         class="cls-18"
         points="396.04 385.91 356.39 363.01 361.35 317.79 391.09 334.96 396.04 385.91"
         id="polygon119" />
      <polygon
         class="cls-19"
         points="385.74 391.63 346.08 368.74 351.04 323.52 380.78 340.69 385.74 391.63"
         id="polygon121" />
      <polygon
         class="cls-20"
         points="385.74 391.63 396.04 385.91 391.09 334.96 380.78 340.69 385.74 391.63"
         id="polygon123" />
      <polygon
         class="cls-18"
         points="351.04 323.52 361.35 317.79 360.14 328.77 351.04 323.52"
         id="polygon125" />
      <path
         class="cls-8"
         d="M373.34,336.29l-1.83-1.06c0-4.27-2.51-9.19-5.6-11s-5.59.24-5.59,4.51l-1.84-1.06c0-5.43,3.34-7.93,7.43-5.57S373.34,330.86,373.34,336.29Z"
         id="path127" />
      <path
         class="cls-8"
         d="M383,330.38l-1.83-1.06c0-4.27-2.51-9.19-5.6-11s-5.59.24-5.59,4.51l-1.84-1.06c0-5.43,3.34-7.93,7.43-5.57S383,325,383,330.38Z"
         id="path129" />
      <polygon
         class="cls-1"
         points="345.26 423.43 288.36 390.6 295.5 386.45 352.4 419.29 345.26 423.43"
         id="polygon131" />
      <polygon
         class="cls-18"
         points="367.24 411.04 310.12 378.06 317.26 312.92 360.1 337.66 367.24 411.04"
         id="polygon133" />
      <polygon
         class="cls-19"
         points="352.4 419.29 295.27 386.31 302.41 321.17 345.26 345.9 352.4 419.29"
         id="polygon135" />
      <polygon
         class="cls-20"
         points="352.4 419.29 367.24 411.04 360.1 337.66 345.26 345.9 352.4 419.29"
         id="polygon137" />
      <polygon
         class="cls-18"
         points="302.41 321.17 317.26 312.92 315.52 328.74 302.41 321.17"
         id="polygon139" />
      <path
         class="cls-8"
         d="M334.54,339.57,331.9,338c0-6.15-3.62-13.24-8.06-15.8s-8.07.34-8.07,6.49l-2.64-1.52c0-7.83,4.8-11.43,10.71-8S334.54,331.74,334.54,339.57Z"
         id="path141" />
      <path
         class="cls-8"
         d="M348.47,331.06l-2.64-1.53c0-6.15-3.62-13.24-8.06-15.81s-8.07.35-8.07,6.5l-2.64-1.52c0-7.84,4.81-11.43,10.71-8S348.47,323.22,348.47,331.06Z"
         id="path143" />
      <polygon
         class="cls-1"
         points="109.47 280.6 88.09 268.33 112.1 254.47 133.47 266.75 109.47 280.6"
         id="polygon145" />
      <polygon
         class="cls-2"
         points="112.94 252.43 90.01 239.19 112.94 225.95 135.87 239.19 112.94 252.43"
         id="polygon147" />
      <polygon
         class="cls-3"
         points="134.32 266.25 112.94 278.59 112.94 253.9 134.32 241.56 134.32 266.25"
         id="polygon149" />
      <polygon
         class="cls-4"
         points="112.94 278.59 91.56 266.25 91.56 241.56 112.94 253.9 112.94 278.59"
         id="polygon151" />
      <polygon
         class="cls-5"
         points="91.56 241.56 91.56 248.02 112.94 260.22 112.94 253.93 91.56 241.56"
         id="polygon153" />
      <polygon
         class="cls-5"
         points="134.32 241.56 134.32 248.48 112.94 260.22 112.94 253.93 134.32 241.56"
         id="polygon155" />
      <polygon
         class="cls-4"
         points="90.01 239.19 90.01 246.03 112.94 259.09 112.94 252.43 90.01 239.19"
         id="polygon157" />
      <polygon
         class="cls-3"
         points="112.94 259.09 135.87 246.57 135.87 239.19 112.94 252.43 112.94 259.09"
         id="polygon159" />
      <polygon
         class="cls-1"
         points="389.25 422.32 369.95 411.25 391.67 398.71 410.97 409.79 389.25 422.32"
         id="polygon161" />
      <polygon
         class="cls-2"
         points="392.43 396.86 371.73 384.91 392.43 372.96 413.13 384.91 392.43 396.86"
         id="polygon163" />
      <polygon
         class="cls-3"
         points="411.73 409.34 392.43 420.48 392.43 398.19 411.73 387.05 411.73 409.34"
         id="polygon165" />
      <polygon
         class="cls-4"
         points="392.43 420.48 373.13 409.34 373.13 387.05 392.43 398.19 392.43 420.48"
         id="polygon167" />
      <polygon
         class="cls-5"
         points="373.13 387.05 373.13 392.88 392.43 403.9 392.43 398.22 373.13 387.05"
         id="polygon169" />
      <polygon
         class="cls-5"
         points="411.73 387.05 411.73 393.3 392.43 403.9 392.43 398.22 411.73 387.05"
         id="polygon171" />
      <polygon
         class="cls-4"
         points="371.73 384.91 371.73 391.09 392.43 402.88 392.43 396.86 371.73 384.91"
         id="polygon173" />
      <polygon
         class="cls-3"
         points="392.43 402.88 413.13 391.57 413.13 384.91 392.43 396.86 392.43 402.88"
         id="polygon175" />
      <polygon
         class="cls-1"
         points="161.37 313.52 120.28 289.81 125.44 286.82 166.53 310.53 161.37 313.52"
         id="polygon177" />
      <polygon
         class="cls-18"
         points="177.25 304.57 135.99 280.75 141.15 233.71 172.09 251.58 177.25 304.57"
         id="polygon179" />
      <polygon
         class="cls-19"
         points="166.53 310.53 125.27 286.71 130.43 239.67 161.37 257.53 166.53 310.53"
         id="polygon181" />
      <polygon
         class="cls-20"
         points="166.53 310.53 177.25 304.57 172.09 251.58 161.37 257.53 166.53 310.53"
         id="polygon183" />
      <polygon
         class="cls-18"
         points="130.43 239.67 141.15 233.71 139.9 245.13 130.43 239.67"
         id="polygon185" />
      <path
         class="cls-8"
         d="M153.63,253l-1.9-1.1c0-4.45-2.62-9.57-5.83-11.42s-5.82.25-5.82,4.69l-1.91-1.1c0-5.65,3.47-8.25,7.73-5.79S153.63,247.3,153.63,253Z"
         id="path187" />
      <path
         class="cls-8"
         d="M163.69,246.81l-1.9-1.1c0-4.44-2.62-9.57-5.83-11.42s-5.82.25-5.82,4.69l-1.91-1.1c0-5.65,3.47-8.25,7.73-5.79S163.69,241.15,163.69,246.81Z"
         id="path189" />
      <g
         id="Men_2">
        <ellipse
           class="cls-1"
           cx="43.6"
           cy="474.83"
           rx="43.6"
           ry="25.17"
           id="ellipse191" />
        <path
           id="_Контур_"
           data-name="&lt;Контур&gt;"
           class="cls-21"
           d="M11.63,286.29c-.49,4.24-5.54,22.52-4.46,28.78S25.52,331.8,25.52,331.8l2.4-10.72-9.57-9.36L20.94,294Z" />
        <path
           id="_Контур_2"
           data-name="&lt;Контур&gt;"
           class="cls-22"
           d="M25,268.28a7.54,7.54,0,0,0-9.61,2.91c-2.54,4.2-5.18,18.64-5.42,21.1,0,0,3.57,4.93,8.91,4.1Z" />
        <path
           class="cls-23"
           d="M44.71,472.07a14.77,14.77,0,0,0,11.17-1.35c2.69.08,17.3-6.17,19.29-.92,1.74,4.6-4.58,8.86-8,9.68-7.38,1.79-12.84,5.47-15.8,6.09-2.21.47-5.07.77-6.83-1C42.46,482.52,42.64,474.82,44.71,472.07Z"
           id="path195" />
        <path
           class="cls-24"
           d="M51.4,484.3c3-.63,8.42-4.31,15.8-6.1,2.84-.68,7.72-3.78,8.21-7.48.66,4.24-5,8-8.21,8.76-7.38,1.79-12.84,5.47-15.8,6.09-2.21.47-5.07.77-6.83-1a4.38,4.38,0,0,1-1-1.77C46.17,485,49.19,484.76,51.4,484.3Z"
           id="path197" />
        <path
           class="cls-23"
           d="M21,461.43a14.77,14.77,0,0,0,11.17-1.35c2.69.08,17.3-6.18,19.29-.92,1.74,4.6-4.58,8.86-8,9.68-7.38,1.79-12.84,5.47-15.8,6.09-2.21.47-5.07.77-6.83-1C18.76,471.88,18.94,464.17,21,461.43Z"
           id="path199" />
        <path
           class="cls-24"
           d="M27.7,473.65c3-.62,8.42-4.3,15.8-6.09,2.84-.68,7.72-3.79,8.21-7.48.66,4.24-5.05,8-8.21,8.76-7.38,1.79-12.84,5.47-15.8,6.09-2.21.47-5.07.77-6.83-1a4.27,4.27,0,0,1-1-1.76C22.47,474.34,25.49,474.12,27.7,473.65Z"
           id="path201" />
        <path
           id="_Контур_3"
           data-name="&lt;Контур&gt;"
           class="cls-25"
           d="M20.72,421.73a88.34,88.34,0,0,1,3.37-16s-1-13.81-1.51-26.9C22,364,16.85,350.88,20.92,339l45.85,10.2S64,408.46,63.38,415.63a134.42,134.42,0,0,1-2.05,16.64c-2.1,11.5-5.5,38.86-5.5,38.86-4.85,2.81-11.21,1.25-11.21,1.25s.35-34.59.66-42.88c.38-10.12.69-9.35.69-9.35L44.46,395l-1-12.54s-1.27,9.2-2.09,17.42c-.72,7.17-2.45,13.65-4.39,27-1.67,11.57-4.39,34.83-4.39,34.83-4.85,2.82-11.43.48-11.43.48S19.4,431.77,20.72,421.73Z" />
        <path
           id="_Контур_4"
           data-name="&lt;Контур&gt;"
           class="cls-21"
           d="M27.41,268.53c3.49.17,6.09,1.07,6.53,0a47.32,47.32,0,0,0,.8-5.46c-.41-1-.75-2.1-.75-2.1-4.39-2.7-5.77-7.44-6.35-13-1-9.43,4.11-17.68,13.55-18.67,8.86-.92,15.39,5.31,17.13,13.86.94,4.23,2.8,12.21.28,19.16-1.41,3.89-3.23,7-5.05,7.57a42.31,42.31,0,0,1-5.24-.46h0s-.47,2.62-.79,4.3-.2,2.57,3.15,4.63-5.06,6.3-10.56,5.89-11.68-3.74-13.37-7.29C24.85,273.08,25,268.42,27.41,268.53Z" />
        <path
           id="_Контур_5"
           data-name="&lt;Контур&gt;"
           class="cls-26"
           d="M32.46,269.05c-1,2.41,1.49,5.36,8,7.42s7.15-.59,7.15-.59,9.62,4.38,12.75,6.57c3.93,2.75,5.68,10.71,6.21,24.15.61,15.56.67,38.64.15,42.62,0,0-7.36,7.33-16.77,6.56s-25.25-9.11-29.1-15.54c.11-13.64,1.71-15.86-.5-23.72-5.06-18-7.72-25.35-5.26-37.3,2-9.85,4.86-11.08,8.75-11A78.88,78.88,0,0,1,32.46,269.05Z" />
        <path
           id="_Контур_6"
           data-name="&lt;Контур&gt;"
           class="cls-21"
           d="M81.42,319.47c-7.73,1.94-9.54-2.93-10.56-7-2.46-9.77-3.78-18.59-5.61-24.13-2.16-6.54-4.42-7.58-7.6-8.85-3.73-1.5-6.94,1.65-5.69,10,1.46,9.85,3.39,16.76,7.07,28.4,1,3,3.12,8.45,6.35,11.06,4,3.22,10,3.08,19.07.83,3.87-1,8.12-3.28,15.45-6.7,2-.92,3.5-1.53,7.27-3.29s7.7-4.69,9.68-7.56,1.64-4.68,1.23-5.33c-.51-.82-.79-.17-1.85,1a21.09,21.09,0,0,1-5.56,5.14s2.44-2.52,3.77-4.16a21.07,21.07,0,0,0,2.92-4.77c.7-1.67-.74-3.94-1.84-2.75s-1.61,2.4-3.61,4.8a20.68,20.68,0,0,1-3.58,3.41,39.43,39.43,0,0,0,3.3-5.3c1.27-2.59-3-1.24-5.39,1.28-1.77,1.83-3.27,2.89-3.31,2.38s-3.49,3.19-5.24,5C95.79,315.05,88.76,317.62,81.42,319.47Z" />
        <path
           id="_Контур_7"
           data-name="&lt;Контур&gt;"
           class="cls-22"
           d="M54.79,278.19c5.16-.76,8.81,1.56,11.08,9.38s3.88,14.23,3.88,14.23a14,14,0,0,1-8.65,5.74c-6.17,1.5-8.39-1.45-8.39-1.45S51,297.9,49.93,292.32,48.41,279.14,54.79,278.19Z" />
        <path
           class="cls-27"
           d="M58,242s8.15-12.4-9.51-14.92c-12.74-1.82-20.92,6.36-21.87,15.24-.9,8.49,4.32,17.3,8.1,20.79,1.84.66,5.8,1,11-1.33a62.62,62.62,0,0,0,.25-6.95S39.78,241.77,58,242Z"
           id="path208" />
      </g>
      <path
         class="cls-21"
         d="M99.4,309.73s-2-3.65-.74-4.56,3.09,2.51,3.46,3.85-.14-.41-.14-.41-1.37-4.12-.48-4.91,2.09,1,3.28,3.56.3-.23.3-.23-2-4.13-1.13-4.7c1.13-.77,3,1.68,4.11,3.89s-1.49,4.82-1.49,4.82Z"
         id="path211" />
      <g
         id="Mobile">
        <path
           class="cls-6"
           d="M103.26,316.25l-7.49-4.33c-.63-.36-.55-1,.18-1.42L114,300.05a2.74,2.74,0,0,1,2.47-.1l7.49,4.32c.63.37.55,1-.18,1.43l-18.09,10.44A2.74,2.74,0,0,1,103.26,316.25Z"
           id="path213" />
        <polygon
           class="cls-6"
           points="95.34 311.3 95.34 310.61 96.15 310.91 95.34 311.3"
           id="polygon215" />
        <polygon
           class="cls-6"
           points="124.42 304.87 124.42 304.21 123.78 304.62 124.42 304.87"
           id="polygon217" />
        <path
           class="cls-7"
           d="M103.26,315.66l-7.49-4.32c-.63-.37-.55-1,.18-1.43L114,299.47a2.74,2.74,0,0,1,2.47-.1l7.49,4.32c.63.37.55,1-.18,1.43l-18.09,10.44A2.74,2.74,0,0,1,103.26,315.66Z"
           id="path219" />
        <ellipse
           class="cls-12"
           cx="96.61"
           cy="312.11"
           rx="0.08"
           ry="0.14"
           transform="matrix(0.87, -0.5, 0.5, 0.87, -143.12, 90.12)"
           id="ellipse221" />
        <ellipse
           class="cls-12"
           cx="96.97"
           cy="312.31"
           rx="0.08"
           ry="0.14"
           transform="translate(-143.17 90.33) rotate(-30)"
           id="ellipse223" />
        <ellipse
           class="cls-12"
           cx="97.33"
           cy="312.52"
           rx="0.08"
           ry="0.14"
           transform="translate(-143.23 90.54) rotate(-30)"
           id="ellipse225" />
        <ellipse
           class="cls-12"
           cx="97.69"
           cy="312.73"
           rx="0.08"
           ry="0.14"
           transform="translate(-143.28 90.75) rotate(-30)"
           id="ellipse227" />
        <ellipse
           class="cls-12"
           cx="100.78"
           cy="314.52"
           rx="0.08"
           ry="0.14"
           transform="translate(-143.76 92.53) rotate(-30)"
           id="ellipse229" />
        <ellipse
           class="cls-12"
           cx="101.14"
           cy="314.72"
           rx="0.08"
           ry="0.14"
           transform="translate(-143.82 92.74) rotate(-30)"
           id="ellipse231" />
        <ellipse
           class="cls-12"
           cx="101.5"
           cy="314.93"
           rx="0.08"
           ry="0.14"
           transform="translate(-143.87 92.95) rotate(-30)"
           id="ellipse233" />
        <ellipse
           class="cls-12"
           cx="101.86"
           cy="315.14"
           rx="0.08"
           ry="0.14"
           transform="matrix(0.87, -0.5, 0.5, 0.87, -143.93, 93.16)"
           id="ellipse235" />
        <path
           class="cls-12"
           d="M99.73,314.06l-1-.57a.28.28,0,0,1-.11-.22h0c0-.08.05-.12.11-.08l1,.57a.26.26,0,0,1,.11.21h0C99.84,314.06,99.79,314.1,99.73,314.06Z"
           id="path237" />
        <path
           class="cls-12"
           d="M122.16,306.51l-.92.53c-.06,0-.11,0-.11-.08h0a.27.27,0,0,1,.11-.2l.92-.53c.06,0,.1,0,.1.08h0A.23.23,0,0,1,122.16,306.51Z"
           id="path239" />
        <path
           class="cls-12"
           d="M120.75,307.33l-.92.53c-.06,0-.11,0-.11-.08h0a.24.24,0,0,1,.11-.2l.92-.54c.06,0,.1,0,.1.08h0A.27.27,0,0,1,120.75,307.33Z"
           id="path241" />
        <path
           class="cls-8"
           d="M103.26,315.56l-7.49-4.33c-.63-.36-.55-1,.18-1.42L114,299.36a2.77,2.77,0,0,1,2.47-.1l7.49,4.32c.63.37.55,1-.18,1.43l-18.09,10.44A2.74,2.74,0,0,1,103.26,315.56Z"
           id="path243" />
        <path
           class="cls-10"
           d="M123.19,303.76l-2.92-1.69h0a1.38,1.38,0,0,1-1.25,0,.38.38,0,0,1,0-.72h0l-2.92-1.69a1.76,1.76,0,0,0-1.61,0L96.87,309.83a.49.49,0,0,0,0,.93l7.1,4.09a1.76,1.76,0,0,0,1.61,0l17.61-10.17A.48.48,0,0,0,123.19,303.76Z"
           id="path245" />
        <path
           class="cls-28"
           d="M123.19,303.76l-2.92-1.69h0a1.38,1.38,0,0,1-1.25,0,.38.38,0,0,1,0-.72h0l-2.92-1.69a1.76,1.76,0,0,0-1.61,0L96.87,309.83a.49.49,0,0,0,0,.93l7.1,4.09a1.76,1.76,0,0,0,1.61,0l17.61-10.17A.48.48,0,0,0,123.19,303.76Z"
           id="path247" />
        <ellipse
           class="cls-10"
           cx="119.45"
           cy="301.82"
           rx="0.34"
           ry="0.19"
           id="ellipse249" />
        <path
           class="cls-11"
           d="M119.35,301.88c-.06,0-.06-.08,0-.11a.18.18,0,0,1,.2,0,.06.06,0,0,1,0,.11A.23.23,0,0,1,119.35,301.88Z"
           id="path251" />
      </g>
      <path
         class="cls-21"
         d="M114.9,314.52s4-3.57,3.77-8.3c-.24-3.3-2.23-.92-2.23-.92l-2,3.63s-2,2.59-3.84,3.18a41.46,41.46,0,0,0-4.19.62c-2.46.48-4.91,3.55-4.91,3.55l3.17,2.43Z"
         id="path254" />
      <path
         class="cls-14"
         d="M424.67,138.6,401.17,125a3,3,0,0,0-2.63-.36h0a2.17,2.17,0,0,0-.53.31l-4.31,2.47,3,4.16v22.33c0,3.28,2,7.09,4.46,8.51l20.73,12,.68,4.69c.14-.07,3.71-2.12,4.84-2.78a1.92,1.92,0,0,0,.31-.18l0,0h0a4.15,4.15,0,0,0,1.35-3.48V147.11C429.12,143.83,427.13,140,424.67,138.6Z"
         id="path256" />
      <path
         class="cls-29"
         d="M419.81,178.81l-23.5-13.57c-2.46-1.42-4.45-5.23-4.45-8.51V131.18c0-3.28,2-4.78,4.45-3.36l23.5,13.56c2.46,1.42,4.46,5.24,4.46,8.52v25.54C424.27,178.72,422.27,180.23,419.81,178.81Z"
         id="path258" />
      <path
         class="cls-15"
         d="M398.79,140.75c0-1.44.41-2.37,1.22-2.8s1.87-.27,3.18.49a8.89,8.89,0,0,1,3.21,3.18,8.23,8.23,0,0,1,1.21,4.3v1.16c0,1.45-.4,2.38-1.21,2.8s-1.87.24-3.18-.52a8.81,8.81,0,0,1-3.21-3.18,8.21,8.21,0,0,1-1.22-4.29Zm2.68,2.79a3.73,3.73,0,0,0,.48,1.83,3.3,3.3,0,0,0,1.27,1.32c.52.3.93.34,1.24.12a1.59,1.59,0,0,0,.46-1.33v-1.19a3.88,3.88,0,0,0-.46-1.83,3.26,3.26,0,0,0-1.27-1.33A1.14,1.14,0,0,0,402,141c-.32.21-.48.66-.48,1.36ZM404,161l-2-2.36L412,146l2,2.36Zm4.49-1.4c0-1.45.41-2.38,1.23-2.8s1.88-.24,3.18.51a9,9,0,0,1,3.2,3.16,8.18,8.18,0,0,1,1.22,4.33v1.16c0,1.43-.4,2.37-1.2,2.79s-1.86.25-3.19-.52a8.79,8.79,0,0,1-3.22-3.19,8.21,8.21,0,0,1-1.22-4.25Zm2.68,2.8a3.81,3.81,0,0,0,.5,1.81,3.44,3.44,0,0,0,1.26,1.35c1.13.66,1.7.26,1.7-1.19v-1.23a3.77,3.77,0,0,0-.47-1.82,3.35,3.35,0,0,0-1.26-1.32,1.15,1.15,0,0,0-1.25-.13,1.48,1.48,0,0,0-.48,1.32Z"
         id="path260" />
      <path
         class="cls-14"
         d="M124.06,67.34l-23.5-13.57a3,3,0,0,0-2.63-.36h0a2.61,2.61,0,0,0-.53.31l-4.31,2.47,3,4.16V82.68c0,3.28,2,7.09,4.45,8.51l20.73,12,.69,4.7,4.83-2.79a3.07,3.07,0,0,0,.31-.17l0,0h0a4.11,4.11,0,0,0,1.36-3.48V75.85C128.52,72.57,126.52,68.76,124.06,67.34Z"
         id="path262" />
      <path
         class="cls-29"
         d="M119.21,107.55,95.71,94c-2.46-1.42-4.46-5.23-4.46-8.51V59.93c0-3.28,2-4.79,4.46-3.37l23.5,13.57c2.46,1.42,4.45,5.23,4.45,8.51v25.54C123.66,107.46,121.67,109,119.21,107.55Z"
         id="path264" />
      <polygon
         class="cls-30"
         points="107.46 69.99 110.64 79.28 117.77 84.59 112.61 87.42 113.83 96.31 107.46 88.77 101.08 88.95 102.3 81.46 97.14 72.68 104.27 75.6 107.46 69.99"
         id="polygon266" />
    </g>
  </g>
  <path
     style="fill:#8c50ff;fill-opacity:1;stroke-width:0.60240966"
     d="m 46.668431,472.41327 -1.807229,-0.17711 0.172661,-17.89518 c 0.09496,-9.84236 0.386841,-21.82592 0.648616,-26.63014 0.56202,-10.31442 -1.325951,-46.41177 -2.327737,-44.5055 -0.240134,0.45694 -0.89922,4.89707 -1.464634,9.86695 -0.565414,4.96988 -2.068538,15.27108 -3.340275,22.89157 -1.271737,7.62048 -3.172137,20.90361 -4.22311,29.51807 -1.472055,12.06592 -2.133787,15.83557 -2.881642,16.41566 -0.534454,0.41456 -2.627216,0.75301 -4.656168,0.75301 -5.970473,0 -5.632109,1.05612 -6.079612,-18.9759 -0.411629,-18.42615 -0.134022,-22.47828 2.233751,-32.60517 1.281533,-5.48107 1.282404,-5.54542 0.305811,-22.59036 -0.53866,-9.40149 -1.515015,-20.61772 -2.169677,-24.92495 -1.173391,-7.72012 -1.570086,-17.6672 -0.84847,-21.27528 l 0.369514,-1.84757 1.50764,1.79173 c 3.621629,4.30406 12.738975,9.5792 21.127803,12.22419 7.985798,2.51792 13.777258,1.84808 19.952745,-2.30771 l 3.058327,-2.05811 -0.0011,3.12192 c -0.0016,4.42618 -2.272227,49.48831 -3.053776,60.60281 -0.359218,5.10847 -1.420283,14.05426 -2.357924,19.87952 -0.937641,5.82526 -2.453131,16.4197 -3.367754,23.5432 -0.914624,7.12349 -1.974416,13.29915 -2.355093,13.72369 -0.783262,0.87352 -5.71944,1.72752 -8.442676,1.46066 z"
     id="path1081"
     inkscape:connector-curvature="0" />
  <path
     style="fill:#00adb5;fill-opacity:1;stroke-width:0.60240966"
     d="m 46.194579,472.4484 -1.678672,-0.24353 0.314342,-6.73496 c 0.701206,-15.02377 0.922162,-53.09219 0.359021,-61.85545 -1.141002,-17.75556 -1.408836,-20.6179 -1.852586,-19.79861 -0.245082,0.45248 -0.900594,4.75343 -1.456694,9.55764 -0.5561,4.80422 -1.933755,14.29217 -3.061456,21.08434 -1.127702,6.79217 -3.031918,20.0753 -4.231593,29.51807 -1.672748,13.16638 -2.406349,17.34422 -3.146934,17.92169 -0.53237,0.41511 -2.619435,0.75301 -4.651094,0.75301 -5.988178,0 -5.654218,1.02182 -6.103463,-18.6747 -0.414785,-18.1857 -0.06987,-23.22151 2.284406,-33.35212 1.226804,-5.27903 1.229745,-5.53038 0.257294,-21.98795 -0.541032,-9.15633 -1.519702,-20.43525 -2.174821,-25.06425 -1.161547,-8.20737 -1.540456,-17.69196 -0.846019,-21.177 l 0.345107,-1.73193 2.893118,2.79106 c 4.875931,4.70391 14.100767,9.52866 22.321702,11.67462 6.414465,1.6744 12.079369,0.59392 17.906695,-3.41538 l 2.573813,-1.77083 -0.0022,3.4928 c -0.0012,1.92103 -0.402262,11.62532 -0.891284,21.56508 -2.052265,41.71395 -2.419222,46.4817 -4.590172,59.63855 -0.656045,3.97591 -2.078544,13.73494 -3.161107,21.68675 -1.887335,13.86313 -2.028788,14.4858 -3.438891,15.13786 -1.797911,0.83138 -5.701877,1.31407 -7.968543,0.98524 z"
     id="path1083"
     inkscape:connector-curvature="0" />
  <path
     style="fill:#00adb5;fill-opacity:1;stroke-width:0.60240966"
     d="m 236.90469,67.267426 c -2.38812,-1.406874 -4.4957,-2.711602 -4.68349,-2.899395 -0.37241,-0.372408 27.65474,-21.596947 28.51891,-21.596947 1.1513,0 10.3669,5.619407 9.91001,6.042835 -1.9934,1.847409 -28.26045,21.059825 -28.76369,21.038529 -0.35183,-0.01488 -2.59361,-1.178148 -4.98174,-2.585022 z"
     id="path1093"
     inkscape:connector-curvature="0" />
  <path
     style="fill:#00adb5;fill-opacity:1;stroke-width:0.60240966"
     d="m 258.41542,79.776367 c -2.48494,-1.452056 -4.46678,-2.803883 -4.40409,-3.00406 0.20633,-0.658865 28.08642,-21.350873 28.75283,-21.339739 0.35819,0.006 2.78309,1.253023 5.38867,2.771195 3.91312,2.28003 4.59443,2.89333 3.91566,3.524792 -2.58652,2.406263 -27.72891,20.792108 -28.36814,20.74474 -0.42177,-0.03125 -2.79999,-1.244872 -5.28493,-2.696928 z"
     id="path1095"
     inkscape:connector-curvature="0" />
  <path
     style="fill:#00adb5;fill-opacity:1;stroke-width:0.60240966"
     d="m 219.25879,57.267908 c 0,-0.309879 -0.94879,-0.906505 -2.10843,-1.325836 -1.15964,-0.419331 -2.10843,-0.946158 -2.10843,-1.170727 0,-0.22457 -0.80427,-0.741446 -1.78726,-1.148614 -3.88196,-1.60796 -3.82424,-1.674602 11.23517,-12.973169 l 14.28194,-10.71525 3.04471,1.600048 c 1.67459,0.880026 4.05936,2.215275 5.29949,2.967218 l 2.25477,1.367171 -14.66449,10.981288 c -8.06547,6.039709 -14.84066,10.981288 -15.05598,10.981288 -0.21532,0 -0.39149,-0.253537 -0.39149,-0.563417 z"
     id="path1097"
     inkscape:connector-curvature="0" />
  <path
     style="fill:#00adb5;fill-opacity:1;stroke-width:0.60240966"
     d="m 193.92921,42.443864 c -2.46933,-1.469178 -4.82855,-2.674292 -5.24271,-2.67803 -0.41415,-0.0037 -0.73977,-0.210111 -0.72359,-0.458605 0.0229,-0.352193 24.81096,-19.036669 28.49814,-21.481044 0.57275,-0.379697 2.39553,0.363716 5.95202,2.427495 l 5.12645,2.974804 -12.03127,9.018288 c -6.61719,4.960059 -13.16933,9.884546 -14.56031,10.943306 l -2.52904,1.925018 z"
     id="path1099"
     inkscape:connector-curvature="0" />
  <path
     style="fill:#00adb5;fill-opacity:1;stroke-width:0.60240966"
     d="m 257.59967,84.936093 c -2.07911,-1.825482 -4.00353,-5.110331 -4.00353,-6.833751 0,-1.174158 9.84768,4.478915 10.12045,5.809658 0.23872,1.164599 -1.47799,2.834988 -2.9136,2.834988 -0.62746,0 -2.06895,-0.814903 -3.20332,-1.810895 z"
     id="path1101"
     inkscape:connector-curvature="0" />
  <path
     style="fill:#00adb5;fill-opacity:1;stroke-width:0.60240966"
     d="m 236.46237,72.920137 c -1.95793,-1.290653 -4.54507,-5.160478 -4.54989,-6.805679 -0.002,-0.579819 0.13869,-1.054217 0.31196,-1.054217 0.62689,0 9.92592,5.594228 9.92592,5.971362 0,0.973074 -1.97843,3.064382 -2.89561,3.060813 -0.56103,-0.0022 -1.8176,-0.529709 -2.79238,-1.172279 z"
     id="path1103"
     inkscape:connector-curvature="0" />
  <path
     style="fill:#00adb5;fill-opacity:1;stroke-width:0.60240966"
     d="m 213.60265,59.439325 c -1.99016,-1.876967 -2.59567,-2.919456 -3.63617,-6.260328 -0.36627,-1.176003 0.24077,-0.962689 4.98467,1.751635 5.44696,3.116589 5.80349,3.612762 4.14037,5.762139 -1.02777,1.328266 -3.30216,0.808884 -5.48887,-1.253446 z"
     id="path1105"
     inkscape:connector-curvature="0" />
  <path
     style="fill:#00adb5;fill-opacity:1;stroke-width:0.60240966"
     d="m 192.17494,47.2174 c -1.86206,-1.56682 -3.1038,-3.507108 -3.90332,-6.099152 -0.51588,-1.672482 0.0957,-1.481277 5.83657,1.824885 4.05284,2.334009 4.87588,3.596653 3.34337,5.129156 -1.17314,1.173142 -3.27022,0.833384 -5.27662,-0.854889 z"
     id="path1107"
     inkscape:connector-curvature="0" />
  <path
     style="fill:#222831;fill-opacity:0.98994976;stroke-width:0.60240966"
     d="m 32.319587,259.72202 c -6.884996,-9.3526 -7.028778,-21.26225 -0.333361,-27.61285 3.582578,-3.39807 7.314922,-4.69953 13.477386,-4.69953 4.673417,0 5.879616,0.2249 8.739673,1.62956 4.995652,2.45352 6.481222,5.80174 4.586341,10.33683 -0.773924,1.85226 -1.111647,2.0345 -4.948395,2.67027 -4.777101,0.7916 -6.726876,2.01291 -8.312937,5.20713 -0.993384,2.0006 -1.051539,2.67998 -0.451807,5.27816 0.378581,1.64011 0.68833,4.32346 0.68833,5.96301 0,2.68618 -0.163845,3.048 -1.656627,3.65842 -0.911144,0.37258 -3.329232,0.80269 -5.373527,0.95581 l -3.716901,0.2784 z"
     id="path1137"
     inkscape:connector-curvature="0" />
  <path
     style="fill:#393e46;fill-opacity:1;stroke-width:0.60240966"
     d=""
     id="path1139"
     inkscape:connector-curvature="0" />
  <path
     style="fill:#eeeeee;fill-opacity:1;stroke-width:0.60240966"
     d="m 332.99872,338.40361 c -0.5215,-0.41415 -1.08723,-1.88682 -1.25718,-3.27258 -0.68007,-5.54531 -5.56947,-12.89577 -9.18098,-13.8022 -0.822,-0.20631 -2.18066,-0.2029 -3.01925,0.008 -1.72456,0.43284 -3.89134,3.57204 -3.89472,5.64263 -0.002,1.21061 -0.15446,1.29516 -1.26439,0.70114 -1.0629,-0.56885 -1.19738,-1.02059 -0.85197,-2.86182 0.83585,-4.45542 3.05739,-6.74606 6.54258,-6.74606 1.87214,0 6.53413,3.06136 8.41274,5.52435 2.27771,2.98624 5.09369,9.41528 5.56208,12.69854 0.44244,3.10147 0.37421,3.23863 -1.04891,2.10843 z"
     id="path1641"
     inkscape:connector-curvature="0" />
  <path
     style="fill:#eeeeee;fill-opacity:1;stroke-width:0.60240966"
     d="m 346.48771,329.39759 c -0.39759,-0.39759 -0.72289,-1.44784 -0.72289,-2.3339 0,-4.01213 -3.99649,-11.13906 -7.43976,-13.2673 -3.85946,-2.38549 -7.73597,-0.54145 -8.73511,4.15526 -0.34961,1.64343 -0.50664,1.7551 -1.47084,1.04599 -0.9578,-0.7044 -1.00042,-1.10771 -0.37818,-3.57886 0.81491,-3.23627 3.41332,-5.78023 5.90397,-5.78023 2.11757,0 6.7055,2.91458 8.69607,5.52436 4.24848,5.57004 7.85198,17.93992 4.14674,14.23468 z"
     id="path1643"
     inkscape:connector-curvature="0" />
  <path
     style="fill:#eeeeee;fill-opacity:1;stroke-width:0.60240966"
     d=""
     id="path1645"
     inkscape:connector-curvature="0" />
  <path
     style="fill:#eeeeee;fill-opacity:1;stroke-width:0.60240966"
     d="m 372.17695,335.24096 c -0.20176,-0.33132 -0.56083,-1.5512 -0.79794,-2.71084 -0.98305,-4.80782 -4.62721,-9.03614 -7.78776,-9.03614 -1.61705,0 -3.3686,1.96756 -3.3686,3.78405 0,0.60848 -0.27109,0.93879 -0.60241,0.73402 -0.91562,-0.56589 -0.71962,-3.48025 0.33536,-4.98644 0.67598,-0.9651 1.54776,-1.33886 3.1228,-1.33886 1.8254,0 2.6502,0.48261 5.01144,2.93236 1.80792,1.87569 3.1955,4.04355 3.85064,6.01601 0.93826,2.82482 1.10273,6.02841 0.23647,4.60584 z"
     id="path1647"
     inkscape:connector-curvature="0" />
  <path
     style="fill:#eeeeee;fill-opacity:1;stroke-width:0.60240966"
     d=""
     id="path1649"
     inkscape:connector-curvature="0" />
  <path
     style="fill:#eeeeee;fill-opacity:1;stroke-width:0.60240966"
     d="m 375.13229,325.48701 c -3.58147,-2.11681 -4.66868,-3.06928 -4.66868,-4.09008 0,-1.6046 1.75547,-3.32464 3.39312,-3.32464 2.29953,0 6.84785,6.18898 6.84785,9.318 0,1.30404 -0.34533,1.18609 -5.57229,-1.90328 z"
     id="path1651"
     inkscape:connector-curvature="0" />
  <path
     style="fill:#eeeeee;fill-opacity:1;stroke-width:0.60240966"
     d="m 376.26552,326.24886 c -5.09017,-2.91969 -6.1811,-4.14724 -5.47096,-6.15604 0.69536,-1.967 3.19529,-2.50082 5.28851,-1.12929 2.31099,1.51422 5.8341,9.39867 4.1697,9.33148 -0.2485,-0.01 -2.04276,-0.93079 -3.98725,-2.04615 z"
     id="path1653"
     inkscape:connector-curvature="0" />
  <path
     style="fill:#eeeeee;fill-opacity:1;stroke-width:0.60240966"
     d="m 381.30699,327.82912 c 0,-2.39135 -2.80211,-7.71807 -4.81351,-9.15031 -0.93378,-0.66491 -2.38605,-1.20893 -3.22726,-1.20893 -1.65399,0 -3.40502,1.94595 -3.40502,3.78405 0,0.60848 -0.27108,0.93879 -0.60241,0.73402 -1.00745,-0.62264 -0.67533,-3.05807 0.64614,-4.73804 1.70022,-2.16148 3.93406,-2.05461 6.82264,0.3264 3.4418,2.83703 7.39257,11.94176 5.18183,11.94176 -0.33133,0 -0.60241,-0.76002 -0.60241,-1.68895 z"
     id="path1655"
     inkscape:connector-curvature="0" />
  <path
     style="fill:#eeeeee;fill-opacity:1;stroke-width:0.60240966"
     d="m 152.19052,252.00803 c -0.22088,-0.22088 -0.40161,-1.11645 -0.40161,-1.99015 0,-2.30598 -2.83928,-7.64414 -4.8135,-9.04991 -3.03436,-2.16066 -5.83701,-1.24194 -6.9056,2.26367 -0.47595,1.56139 -1.53391,1.23877 -1.53391,-0.46776 0,-1.90026 1.25412,-4.03873 2.77489,-4.73164 3.95999,-1.8043 10.29643,4.56384 11.6268,11.68496 0.46779,2.50395 0.22144,3.25935 -0.74707,2.29083 z"
     id="path1657"
     inkscape:connector-curvature="0" />
  <path
     style="fill:#eeeeee;fill-opacity:1;stroke-width:0.60240966"
     d=""
     id="path1659"
     inkscape:connector-curvature="0" />
  <path
     style="fill:#eeeeee;fill-opacity:1;stroke-width:0.60240966"
     d=""
     id="path1661"
     inkscape:connector-curvature="0" />
  <path
     style="fill:#eeeeee;fill-opacity:1;stroke-width:0.60240966"
     d="m 161.57119,242.65187 c -0.97888,-4.12084 -3.13527,-7.27924 -5.84916,-8.56707 -2.03549,-0.9659 -2.309,-0.97086 -3.68875,-0.0668 -0.81963,0.53704 -1.64955,1.773 -1.84426,2.74656 -0.44149,2.20742 -1.41215,1.73802 -1.41215,-0.68291 0,-1.96383 2.30042,-4.75634 3.91819,-4.75634 1.4583,0 4.02702,1.50173 5.83296,3.41008 1.90721,2.01534 4.69239,7.75798 4.70079,9.69233 0.0105,2.40894 -0.89363,1.44037 -1.65762,-1.77584 z"
     id="path1663"
     inkscape:connector-curvature="0" />
  <path
     style="fill:#eeeeee;fill-opacity:1;stroke-width:0.60240966"
     d=""
     id="path1665"
     inkscape:connector-curvature="0" />
  <path
     style="fill:#eeeeee;fill-opacity:1;stroke-width:0.60240966"
     d=""
     id="path1667"
     inkscape:connector-curvature="0" />
  <path
     style="fill:#eeeeee;fill-opacity:1;stroke-width:0.60240966"
     d=""
     id="path1669"
     inkscape:connector-curvature="0" />
  <path
     style="fill:#eeeeee;fill-opacity:1;stroke-width:0.60240966"
     d=""
     id="path1671"
     inkscape:connector-curvature="0" />
  <path
     style="fill:#eeeeee;fill-opacity:1;stroke-width:0.60240966"
     d=""
     id="path1673"
     inkscape:connector-curvature="0" />
  <path
     style="fill:#eeeeee;fill-opacity:1;stroke-width:0.60240966"
     d=""
     id="path1675"
     inkscape:connector-curvature="0" />
  <path
     style="fill:#eeeeee;fill-opacity:1;stroke-width:0.60240966"
     d=""
     id="path1677"
     inkscape:connector-curvature="0" />
  <path
     style="fill:#eeeeee;fill-opacity:1;stroke-width:0.60240966"
     d=""
     id="path1679"
     inkscape:connector-curvature="0" />
  <path
     style="fill:#eeeeee;fill-opacity:1;stroke-width:0.60240966"
     d="m 324.07807,402.64808 c -15.0753,-8.72201 -27.66965,-15.95453 -27.98743,-16.07225 -0.46921,-0.17381 6.04058,-64.11545 6.59273,-64.75623 0.12736,-0.14781 5.89477,3.11619 35.70193,20.20512 3.72741,2.13698 6.77711,4.13094 6.77711,4.43102 0,0.30008 1.07137,11.45373 2.38084,24.78589 3.46114,35.23937 4.37309,45.44674 4.14625,46.40882 -0.13951,0.59169 -8.66162,-4.03871 -27.61143,-15.00237 z"
     id="path1699"
     inkscape:connector-curvature="0" />
  <path
     style="fill:#eeeeee;fill-opacity:1;stroke-width:0.60240966"
     d="m 339.94877,342.68018 -4.91244,-2.99975 -0.63854,-3.62507 c -1.73952,-9.87538 -8.61436,-18.21427 -15.07014,-18.27943 -2.48025,-0.025 -2.93034,0.18747 -4.17807,1.97262 -0.7691,1.10037 -1.55111,2.94199 -1.73782,4.0925 -0.1867,1.1505 -0.54557,2.21921 -0.79749,2.3749 -0.25192,0.1557 -2.53702,-0.90184 -5.078,-2.35008 l -4.61998,-2.63317 6.61893,-3.68864 c 3.64041,-2.02875 6.7753,-3.68864 6.96643,-3.68864 0.19113,0 0.37958,0.60994 0.41878,1.35542 0.0645,1.22748 0.10719,1.207 0.45181,-0.21688 0.37968,-1.56881 0.41334,-1.55333 15.13956,6.96363 8.11747,4.69477 17.56248,10.1079 20.98891,12.02918 3.42643,1.92129 6.00174,3.71796 5.7229,3.99262 -0.72608,0.71519 -13.53215,7.81397 -13.98472,7.75214 -0.20773,-0.0284 -2.58828,-1.40149 -5.29012,-3.05135 z"
     id="path1701"
     inkscape:connector-curvature="0" />
  <path
     style="fill:#eeeeee;fill-opacity:1;stroke-width:0.60240966"
     d="m 352.38425,417.31928 c -0.004,-0.74548 -0.40945,-5.01506 -0.90124,-9.48795 -0.49179,-4.4729 -1.96739,-19.24699 -3.27911,-32.83133 -1.31172,-13.58434 -2.49902,-25.65676 -2.63843,-26.8276 -0.25061,-2.10473 -0.20226,-2.15583 4.27556,-4.51807 2.49098,-1.3141 5.83288,-3.24616 7.42646,-4.29346 l 2.89742,-1.90419 0.32997,2.5066 c 0.47766,3.62863 3.25659,33.02606 3.62521,38.34997 0.17205,2.48494 0.8906,10.53634 1.59679,17.892 0.70618,7.35566 1.13667,13.75777 0.95664,14.22691 -0.28202,0.73492 -12.97426,8.24254 -13.93469,8.24254 -0.19113,0 -0.35069,-0.60994 -0.35458,-1.35542 z"
     id="path1703"
     inkscape:connector-curvature="0" />
  <path
     style="fill:#eeeeee;fill-opacity:1;stroke-width:0.60240966"
     d="m 323.47566,333.20744 c -6.5916,-3.83975 -6.93644,-4.1383 -7.10761,-6.1536 -0.24501,-2.88451 1.70642,-5.36709 4.21878,-5.36709 3.72972,0 7.36401,3.5571 9.7063,9.50014 1.04014,2.63912 1.36812,6.20423 0.56205,6.1093 -0.2485,-0.0293 -3.56928,-1.86921 -7.37952,-4.08875 z"
     id="path1705"
     inkscape:connector-curvature="0" />
  <path
     style="fill:#eeeeee;fill-opacity:1;stroke-width:0.60240966"
     d="m 384.05931,375.75301 c -0.44854,-2.15069 -3.49306,-34.85628 -3.26187,-35.04039 0.11459,-0.0913 2.43174,-1.4037 5.14923,-2.91655 l 4.94089,-2.75064 0.33009,2.50741 c 0.44678,3.39385 3.34235,33.71457 3.34235,34.99912 0,0.72934 -0.32711,0.91939 -1.13895,0.66172 -0.71839,-0.22801 -2.47975,0.42433 -4.77004,1.76663 -1.9971,1.17047 -3.78362,2.12812 -3.97006,2.12812 -0.18643,0 -0.46617,-0.60994 -0.62164,-1.35542 z"
     id="path1707"
     inkscape:connector-curvature="0" />
  <path
     style="fill:#eeeeee;fill-opacity:1;stroke-width:0.60240966"
     d="m 368.54837,381.46641 -4.02368,-2.23371 -0.34906,-3.32117 c -0.19199,-1.82664 -1.02682,-10.64045 -1.85518,-19.58623 -0.82837,-8.94578 -1.62801,-16.80723 -1.77697,-17.46988 -0.16383,-0.72876 -2.12546,-2.28801 -4.96452,-3.94618 l -4.69366,-2.74136 0.10886,-3.7932 c 0.0599,-2.08627 0.22677,-3.91112 0.37088,-4.05522 0.14411,-0.14411 4.56801,2.21475 9.83089,5.24192 5.26289,3.02716 11.80449,6.76334 14.5369,8.3026 4.53156,2.5528 4.96817,2.96089 4.96988,4.64515 0.003,2.54857 2.96299,32.87861 3.31918,34.00575 0.20234,0.64029 -1.32114,1.85324 -5.10729,4.06627 -2.9676,1.73458 -5.6087,3.14596 -5.8691,3.13638 -0.2604,-0.01 -2.28411,-1.02258 -4.49713,-2.25112 z"
     id="path1709"
     inkscape:connector-curvature="0" />
  <path
     style="fill:#eeeeee;fill-opacity:1;stroke-width:0.60240966"
     d="m 349.18562,382.54121 c -1.9288,-19.54095 -3.34713,-35.78752 -3.15184,-36.1035 0.19529,-0.31598 3.33213,-2.26409 6.97076,-4.32913 3.63863,-2.06504 6.6157,-3.96097 6.6157,-4.21318 0,-0.67148 -2.46083,-2.4958 -5.64555,-4.18528 l -2.78819,-1.47914 v -3.83054 c 0,-3.39951 0.11863,-3.78536 1.05422,-3.42898 2.20196,0.83875 25.81544,14.4089 27.10843,15.57862 1.00951,0.91326 1.35543,1.89419 1.35543,3.84358 0,1.43955 0.67999,9.29765 1.51109,17.46243 1.34115,13.17544 1.41017,14.95658 0.61375,15.83662 -0.49354,0.54535 -2.93907,2.06018 -5.43451,3.36629 l -4.53717,2.37473 -4.05851,-2.14192 -4.05851,-2.14192 -1.56298,-16.23157 c -2.08756,-21.67934 -2.40883,-24.50876 -2.74475,-24.17284 -0.15731,0.15732 0.40244,7.2946 1.2439,15.86063 0.84147,8.56604 1.72563,18.14991 1.96481,21.2975 0.23918,3.14759 0.53162,5.2734 0.64986,4.72401 0.18145,-0.84305 0.82045,-0.6551 4.09611,1.20482 2.4553,1.39412 3.77084,2.49844 3.58094,3.00599 -0.1651,0.44125 -0.30018,1.59884 -0.30018,2.57243 v 1.77014 l -3.16265,-1.80243 c -2.28176,-1.30039 -3.26864,-2.26857 -3.54318,-3.47604 -0.30632,-1.3472 -0.39444,-1.13512 -0.45181,1.08743 -0.0392,1.51858 0.11577,2.94809 0.34439,3.17671 0.22861,0.22861 0.34406,1.76476 0.25654,3.41366 -0.0875,1.64889 0.0643,3.00022 0.33735,3.00296 0.27306,0.003 0.58446,3.64438 0.69201,8.09255 l 0.19554,8.08758 -6.21964,3.64849 c -3.4208,2.00666 -6.49072,3.65069 -6.82204,3.65339 -0.35557,0.003 -2.03937,-14.55317 -4.10932,-35.52409 z"
     id="path1711"
     inkscape:connector-curvature="0" />
  <path
     style="fill:#eeeeee;fill-opacity:1;stroke-width:0.60240966"
     d="m 365.56042,331.72237 c -5.03427,-2.88112 -5.18845,-3.03412 -4.71636,-4.68021 0.73849,-2.57494 1.10952,-2.94577 2.94736,-2.94577 2.40575,0 4.49098,1.88518 6.02211,5.44439 2.27977,5.29946 1.70762,5.59294 -4.25311,2.18159 z"
     id="path1713"
     inkscape:connector-curvature="0" />
  <path
     style="fill:#eeeeee;fill-opacity:1;stroke-width:0.60240966"
     d="m 377.13157,338.362 c -2.97985,-1.77831 -3.33282,-2.21969 -3.95553,-4.94643 -1.01777,-4.45662 -2.52549,-7.18619 -5.4671,-9.89768 -1.87031,-1.72399 -3.17096,-2.43355 -4.46078,-2.43355 -1.53203,0 -1.82069,-0.2347 -1.82069,-1.48032 0,-1.383 0.91998,-0.94971 13.99418,6.59098 7.6968,4.43921 14.08101,8.3318 14.18715,8.65019 0.15646,0.4694 -8.18808,5.57444 -8.97839,5.4928 -0.12487,-0.0129 -1.69935,-0.90209 -3.49884,-1.97599 z"
     id="path1715"
     inkscape:connector-curvature="0" />
  <path
     style="fill:#eeeeee;fill-opacity:1;stroke-width:0.60240966"
     d=""
     id="path1717"
     inkscape:connector-curvature="0" />
  <path
     style="fill:#eeeeee;fill-opacity:1;stroke-width:0.60240966"
     d=""
     id="path1719"
     inkscape:connector-curvature="0" />
  <path
     style="fill:#eeeeee;fill-opacity:1;stroke-width:0.60240966"
     d=""
     id="path1721"
     inkscape:connector-curvature="0" />
  <path
     style="fill:#eeeeee;fill-opacity:1;stroke-width:0.60240966"
     d=""
     id="path1723"
     inkscape:connector-curvature="0" />
  <path
     style="fill:#eeeeee;fill-opacity:1;stroke-width:0.60240966"
     d=""
     id="path1725"
     inkscape:connector-curvature="0" />
  <path
     style="fill:#eeeeee;fill-opacity:1;stroke-width:0.60240966"
     d=""
     id="path1727"
     inkscape:connector-curvature="0" />
  <path
     style="fill:#eeeeee;fill-opacity:1;stroke-width:0.60240966"
     d="m 354.5821,325.32946 -2.92969,-1.71827 1.42367,-0.87297 c 2.86025,-1.75387 7.06884,-4.06352 7.40444,-4.06352 0.7352,0 0.29725,2.90377 -0.54314,3.60123 -0.48822,0.40518 -1.06055,1.65826 -1.27186,2.7846 -0.2113,1.12635 -0.55733,2.03425 -0.76895,2.01755 -0.21162,-0.0167 -1.70313,-0.80357 -3.31447,-1.74862 z"
     id="path1729"
     inkscape:connector-curvature="0" />
  <path
     style="fill:#eeeeee;fill-opacity:1;stroke-width:0.60240966"
     d="m 145.43431,298.1006 -19.90882,-11.50434 0.69971,-6.40054 c 0.38484,-3.5203 1.47164,-13.66057 2.4151,-22.53395 0.94347,-8.87338 1.89342,-16.42146 2.111,-16.77351 0.24335,-0.39375 4.30985,1.61772 10.566,5.22641 5.59373,3.22658 12.29006,7.07393 14.88074,8.54967 2.59068,1.47573 4.81699,2.99533 4.94736,3.37688 0.13036,0.38154 1.19752,10.99492 2.37148,23.58529 1.17395,12.59036 2.28503,24.04367 2.46907,25.4518 0.18404,1.40814 0.11469,2.55268 -0.1541,2.54344 -0.2688,-0.009 -9.44769,-5.19376 -20.39754,-11.52115 z"
     id="path1731"
     inkscape:connector-curvature="0" />
  <path
     style="fill:#eeeeee;fill-opacity:1;stroke-width:0.60240966"
     d="m 166.59719,308.28313 c -0.1512,-0.74548 -0.42971,-2.98193 -0.6189,-4.96988 -1.78473,-18.7531 -4.60873,-45.08827 -4.88244,-45.53114 -0.18805,-0.30426 -0.0841,-0.55319 0.2311,-0.55319 0.31514,0 2.78949,-1.24648 5.49854,-2.76994 2.70906,-1.52347 5.01144,-2.67557 5.1164,-2.56024 0.10497,0.11533 0.63149,4.81813 1.17005,10.45066 0.53856,5.63253 1.671,17.38508 2.51653,26.11677 0.84553,8.7317 1.45253,15.94016 1.34889,16.01879 -0.6811,0.51676 -9.44362,5.15359 -9.73908,5.15359 -0.2014,0 -0.48988,-0.60994 -0.64109,-1.35542 z"
     id="path1733"
     inkscape:connector-curvature="0" />
  <path
     style="fill:#eeeeee;fill-opacity:1;stroke-width:0.60240966"
     d="m 157.3612,255.02212 c -3.1817,-1.79148 -3.76506,-2.37482 -3.76506,-3.76493 0,-3.10719 -1.92963,-7.33037 -4.75167,-10.39946 -2.36552,-2.57261 -3.25902,-3.12415 -5.64868,-3.48681 l -2.83867,-0.4308 -1.21182,2.50327 c -0.66649,1.37679 -1.21181,2.8243 -1.21181,3.21668 0,0.39239 -0.16336,0.71342 -0.36302,0.71342 -0.58104,0 -6.26285,-3.28246 -6.25647,-3.61445 0.009,-0.4722 8.9015,-5.42169 9.7408,-5.42169 0.64828,0 18.01468,9.73373 27.44003,15.37992 l 3.15171,1.88801 -5.26014,2.76839 -5.26014,2.76839 z"
     id="path1735"
     inkscape:connector-curvature="0" />
  <path
     style="fill:#eeeeee;fill-opacity:1;stroke-width:0.60240966"
     d="m 145.31301,248.10611 c -5.19967,-3.12869 -5.73348,-3.97676 -4.03211,-6.40581 2.07656,-2.96469 6.40301,-0.86452 8.71588,4.23093 1.17894,2.59728 1.56364,5.3184 0.73792,5.21945 -0.2485,-0.0298 -2.68826,-1.39983 -5.42169,-3.04457 z"
     id="path1737"
     inkscape:connector-curvature="0" />
  <path
     style="fill:#393e46;fill-opacity:0;stroke-width:0.60240966"
     d="m 408.11421,172.24435 c -6.95783,-3.9991 -13.22646,-7.95872 -13.9303,-8.79915 -2.27875,-2.72102 -2.63596,-5.42551 -2.63596,-19.9574 v -13.90254 l 1.49518,-1.69022 c 0.91877,-1.03862 1.67354,-1.45445 1.95783,-1.07863 0.25446,0.33637 4.93554,3.15895 10.40241,6.27241 14.68484,8.3632 16.04901,9.30676 17.46326,12.07893 1.1694,2.29221 1.24255,3.39997 1.19154,18.04481 -0.0568,16.30447 -0.0575,16.30895 -2.58961,16.30419 -0.38706,-7.3e-4 -6.39651,-3.27331 -13.35435,-7.2724 z m 8.61446,-3.69013 c 0.39759,-0.39759 0.72188,-1.95633 0.72064,-3.46386 -0.004,-4.65002 -3.4697,-8.76598 -7.03712,-8.35702 -1.64958,0.1891 -1.69548,0.2924 -1.6923,3.80883 0.004,3.8987 1.04438,5.96303 3.9124,7.75952 1.81982,1.13992 3.12833,1.22058 4.09638,0.25253 z m -7.485,-13.79106 c 4.42918,-5.68514 4.68655,-6.17441 3.961,-7.53012 -0.42679,-0.79745 -0.93348,-1.4391 -1.12599,-1.4259 -0.1925,0.0132 -2.59726,2.89407 -5.34391,6.40192 -4.76308,6.08313 -4.94671,6.43007 -3.9729,7.50612 0.56155,0.62051 1.18387,1.12819 1.38292,1.12819 0.19905,0 2.49355,-2.73609 5.09888,-6.08021 z m -2.3773,-5.10739 c 2.02886,-2.02886 0.87655,-7.51573 -2.15877,-10.2793 -3.47103,-3.16027 -5.93203,-2.28314 -5.92848,2.11295 0.003,3.3434 1.58908,6.22215 4.35971,7.91142 2.36925,1.44455 2.52711,1.45535 3.72754,0.25493 z"
     id="path1759"
     inkscape:connector-curvature="0" />
  <path
     style="fill:#393e46;fill-opacity:0;stroke-width:0.60240966"
     d="m 408.11421,172.24435 c -6.95783,-3.9991 -13.22646,-7.95872 -13.9303,-8.79915 -2.27875,-2.72102 -2.63596,-5.42551 -2.63596,-19.9574 v -13.90254 l 1.49518,-1.69022 c 0.91877,-1.03862 1.67354,-1.45445 1.95783,-1.07863 0.25446,0.33637 4.93554,3.15895 10.40241,6.27241 14.68484,8.3632 16.04901,9.30676 17.46326,12.07893 1.1694,2.29221 1.24255,3.39997 1.19154,18.04481 -0.0568,16.30447 -0.0575,16.30895 -2.58961,16.30419 -0.38706,-7.3e-4 -6.39651,-3.27331 -13.35435,-7.2724 z m 8.61446,-3.69013 c 0.39759,-0.39759 0.72188,-1.95633 0.72064,-3.46386 -0.004,-4.65002 -3.4697,-8.76598 -7.03712,-8.35702 -1.64958,0.1891 -1.69548,0.2924 -1.6923,3.80883 0.004,3.8987 1.04438,5.96303 3.9124,7.75952 1.81982,1.13992 3.12833,1.22058 4.09638,0.25253 z m -7.485,-13.79106 c 4.42918,-5.68514 4.68655,-6.17441 3.961,-7.53012 -0.42679,-0.79745 -0.93348,-1.4391 -1.12599,-1.4259 -0.1925,0.0132 -2.59726,2.89407 -5.34391,6.40192 -4.76308,6.08313 -4.94671,6.43007 -3.9729,7.50612 0.56155,0.62051 1.18387,1.12819 1.38292,1.12819 0.19905,0 2.49355,-2.73609 5.09888,-6.08021 z m -2.3773,-5.10739 c 2.02886,-2.02886 0.87655,-7.51573 -2.15877,-10.2793 -3.47103,-3.16027 -5.93203,-2.28314 -5.92848,2.11295 0.003,3.3434 1.58908,6.22215 4.35971,7.91142 2.36925,1.44455 2.52711,1.45535 3.72754,0.25493 z"
     id="path1761"
     inkscape:connector-curvature="0" />
  <path
     style="fill:#393e46;fill-opacity:0;stroke-width:0.60240966"
     d="m 403.05081,159.40612 c -0.55047,-0.66327 0.2472,-2.02512 3.88128,-6.62651 2.51578,-3.18541 4.77329,-5.79166 5.01669,-5.79166 0.2434,0 0.7433,0.30076 1.11089,0.66835 0.48953,0.48953 -0.56621,2.25439 -3.94578,6.59616 -2.53777,3.26029 -4.78425,5.94146 -4.99218,5.95815 -0.20792,0.0167 -0.68983,-0.34533 -1.0709,-0.80449 z"
     id="path1763"
     inkscape:connector-curvature="0" />
  <path
     style="fill:#393e46;fill-opacity:0;stroke-width:0.60240966"
     d="m 408.11421,172.24435 c -6.95783,-3.9991 -13.22646,-7.95872 -13.9303,-8.79915 -2.27875,-2.72102 -2.63596,-5.42551 -2.63596,-19.9574 v -13.90254 l 1.49518,-1.69022 c 0.91877,-1.03862 1.67354,-1.45445 1.95783,-1.07863 0.25446,0.33637 4.93554,3.15895 10.40241,6.27241 14.68484,8.3632 16.04901,9.30676 17.46326,12.07893 1.1694,2.29221 1.24255,3.39997 1.19154,18.04481 -0.0568,16.30447 -0.0575,16.30895 -2.58961,16.30419 -0.38706,-7.3e-4 -6.39651,-3.27331 -13.35435,-7.2724 z m 8.61446,-3.69013 c 0.39759,-0.39759 0.72188,-1.95633 0.72064,-3.46386 -0.004,-4.65002 -3.4697,-8.76598 -7.03712,-8.35702 -1.64958,0.1891 -1.69548,0.2924 -1.6923,3.80883 0.004,3.8987 1.04438,5.96303 3.9124,7.75952 1.81982,1.13992 3.12833,1.22058 4.09638,0.25253 z m -7.485,-13.79106 c 4.42918,-5.68514 4.68655,-6.17441 3.961,-7.53012 -0.42679,-0.79745 -0.93348,-1.4391 -1.12599,-1.4259 -0.1925,0.0132 -2.59726,2.89407 -5.34391,6.40192 -4.76308,6.08313 -4.94671,6.43007 -3.9729,7.50612 0.56155,0.62051 1.18387,1.12819 1.38292,1.12819 0.19905,0 2.49355,-2.73609 5.09888,-6.08021 z m -2.3773,-5.10739 c 2.02886,-2.02886 0.87655,-7.51573 -2.15877,-10.2793 -3.47103,-3.16027 -5.93203,-2.28314 -5.92848,2.11295 0.003,3.3434 1.58908,6.22215 4.35971,7.91142 2.36925,1.44455 2.52711,1.45535 3.72754,0.25493 z"
     id="path1765"
     inkscape:connector-curvature="0" />
  <path
     style="fill:#00adb5;fill-opacity:1;stroke-width:0.60240966"
     d="m 110.16421,91.566265 c -2.44431,-2.898801 -2.65694,-3.012048 -5.65534,-3.012048 h -3.11553 l 0.57939,-3.597688 c 0.56661,-3.518346 0.53064,-3.679512 -1.63081,-7.307954 -1.215604,-2.040646 -2.103404,-3.817054 -1.972885,-3.947572 0.130518,-0.130518 1.557661,0.328664 3.171425,1.020406 1.61377,0.691742 3.00864,1.03741 3.0997,0.768152 0.0911,-0.269259 0.74589,-1.438356 1.45516,-2.597995 l 1.28958,-2.108433 1.38779,3.614457 c 0.76329,1.987952 1.40178,3.906323 1.41888,4.263047 0.0171,0.356723 1.67695,1.840937 3.68857,3.298253 l 3.6575,2.649665 -2.52014,1.219819 -2.52014,1.219819 0.38545,3.76506 c 0.21199,2.070783 0.25848,3.76506 0.10332,3.76506 -0.15517,0 -1.42503,-1.355421 -2.82192,-3.012048 z"
     id="path1799"
     inkscape:connector-curvature="0" />
  <path
     style="fill:#00adb5;fill-opacity:1;stroke-width:0.60240966"
     d="m 411.40185,166.38119 c -2.20026,-2.20027 -2.38402,-2.6399 -2.38402,-5.7037 0,-3.85108 0.85474,-4.57447 3.67926,-3.11386 2.76081,1.42767 4.20763,4.23808 4.01438,7.79782 -0.14242,2.62332 -0.34175,3.03732 -1.54456,3.2079 -0.96308,0.13658 -2.10254,-0.52564 -3.76506,-2.18816 z m 3.42002,-1.73101 c 0.47724,-1.90146 -0.82622,-4.60538 -2.36271,-4.90128 -2.02361,-0.38971 -2.08344,3.57113 -0.0841,5.57042 1.34978,1.34978 1.98364,1.17644 2.44685,-0.66914 z"
     id="path1801"
     inkscape:connector-curvature="0" />
  <path
     style="fill:#00adb5;fill-opacity:1;stroke-width:0.60240966"
     d=""
     id="path1803"
     inkscape:connector-curvature="0" />
  <path
     style="fill:#00adb5;fill-opacity:1;stroke-width:0.60240966"
     d="m 403.84821,149.41635 c -3.29926,-1.33469 -5.72266,-6.66097 -4.4972,-9.88418 1.62029,-4.26168 7.85959,1.05945 7.85959,6.70297 0,1.27549 -0.3253,2.64438 -0.72289,3.04197 -0.82485,0.82485 -0.93089,0.83045 -2.6395,0.13924 z m 1.25088,-3.62352 c 0.54019,-1.70199 -0.96681,-4.52777 -2.41468,-4.52777 -1.56881,0 -1.90751,2.29719 -0.62687,4.2517 1.16572,1.7791 2.52534,1.90251 3.04155,0.27607 z"
     id="path1807"
     inkscape:connector-curvature="0" />
  <path
     style="fill:#00adb5;fill-opacity:1;stroke-width:0.60240966"
     d="m 403.02145,159.37075 c -0.58971,-0.71057 0.12718,-1.92626 3.90766,-6.62651 2.54643,-3.16596 4.81715,-5.75629 5.04604,-5.75629 0.2289,0 0.721,0.30483 1.09356,0.67739 0.50158,0.50158 -0.52252,2.2148 -3.94578,6.60097 -2.54275,3.25797 -4.79329,5.93507 -5.00122,5.94912 -0.20792,0.014 -0.70304,-0.36606 -1.10026,-0.84468 z"
     id="path1809"
     inkscape:connector-curvature="0" />
  <path
     style="fill:#eeeeee;fill-opacity:0;stroke-width:0.60240966"
     d="m 341.84915,412.47304 c -9.45901,-5.2744 -45.01469,-25.68119 -45.40818,-26.06152 -0.54011,-0.52205 5.74781,-62.06019 6.47382,-63.35749 0.31045,-0.55474 5.90993,2.35682 19.98403,10.39109 10.75401,6.13898 20.12975,11.62975 20.83497,12.20171 1.20309,0.97573 1.47555,3.08496 4.41423,34.17245 1.72261,18.22289 3.04319,34.15849 2.93464,35.41245 l -0.19736,2.27992 z"
     id="path1813"
     inkscape:connector-curvature="0" />
  <path
     style="fill:#eeeeee;fill-opacity:1;stroke-width:0.60240966"
     d="m 341.84915,412.47304 c -9.45901,-5.2744 -45.01469,-25.68119 -45.40818,-26.06152 -0.54011,-0.52205 5.74781,-62.06019 6.47382,-63.35749 0.31045,-0.55474 5.90993,2.35682 19.98403,10.39109 10.75401,6.13898 20.12975,11.62975 20.83497,12.20171 1.20309,0.97573 1.47555,3.08496 4.41423,34.17245 1.72261,18.22289 3.04319,34.15849 2.93464,35.41245 l -0.19736,2.27992 z"
     id="path1829"
     inkscape:connector-curvature="0" />
  <path
     style="fill:#801212;stroke:#000000;stroke-width:1px;stroke-linecap:butt;stroke-linejoin:miter;stroke-opacity:1;fill-opacity:1"
     d="m 345.26,345.9 c 7.12425,71.41928 7.12425,71.41928 7.12425,71.41928"
     id="path1845"
     inkscape:connector-curvature="0" />
  <path
     style="fill:none;stroke:#000000;stroke-width:1px;stroke-linecap:butt;stroke-linejoin:miter;stroke-opacity:1"
     d="m 315.42,362.74 v 0"
     id="path1847"
     inkscape:connector-curvature="0" />
  <path
     style="fill:none;stroke:#000000;stroke-width:1px;stroke-linecap:butt;stroke-linejoin:miter;stroke-opacity:1"
     d="m 345.26,345.9 14.90491,-8.44332 7.07509,73.58332 -14.84,8.25 -56.9,-32.84 7.41629,-65.2173 z"
     id="path1851"
     inkscape:connector-curvature="0" />
  <path
     style="fill:none;stroke:#000000;stroke-width:1px;stroke-linecap:butt;stroke-linejoin:miter;stroke-opacity:1"
     d="M 302.91629,321.2327 317.26,312.92 l 42.90491,24.53668"
     id="path1855"
     inkscape:connector-curvature="0" />
  <path
     style="fill:none;stroke:#000000;stroke-width:1px;stroke-linecap:butt;stroke-linejoin:miter;stroke-opacity:1"
     d="m 380.78,340.69 10.31,-5.73 1.34,38"
     id="path1857"
     inkscape:connector-curvature="0" />
  <path
     style="fill:none;stroke:#000000;stroke-width:1px;stroke-linecap:butt;stroke-linejoin:miter;stroke-opacity:1"
     d="M 384.05931,375.75301 380.78,340.69"
     id="path1859"
     inkscape:connector-curvature="0" />
  <path
     style="fill:none;stroke:#000000;stroke-width:1px;stroke-linecap:butt;stroke-linejoin:miter;stroke-opacity:1"
     d="m 392.43,372.96 -8.37069,2.79301"
     id="path1861"
     inkscape:connector-curvature="0" />
  <path
     style="fill:none;stroke:#000000;stroke-width:1px;stroke-linecap:butt;stroke-linejoin:miter;stroke-opacity:1"
     d="m 372.85774,383.43373 -8.11702,-4.28384"
     id="path1863"
     inkscape:connector-curvature="0" />
  <path
     style="fill:none;stroke:#000000;stroke-width:1px;stroke-linecap:butt;stroke-linejoin:miter;stroke-opacity:1"
     d="m 384.05931,375.75301 -11.20157,7.68072"
     id="path1865"
     inkscape:connector-curvature="0" />
  <path
     style="fill:none;stroke:#000000;stroke-width:1px;stroke-linecap:butt;stroke-linejoin:miter;stroke-opacity:1"
     d="m 380.78,340.69 -29.74,-17.17 10.31,-5.73 29.74,17.17"
     id="path1867"
     inkscape:connector-curvature="0" />
  <path
     style="fill:none;stroke:#000000;stroke-width:1px;stroke-linecap:butt;stroke-linejoin:miter;stroke-opacity:1"
     d="M 351.1865,332.23098 351.04,323.52"
     id="path1869"
     inkscape:connector-curvature="0" />
  <path
     style="fill:none;stroke:#000000;stroke-width:1px;stroke-linecap:butt;stroke-linejoin:miter;stroke-opacity:1"
     d="m 161.12626,257.14206 5.47093,51.14107 L 177.25,304.57 171.64654,251.60528 141.15,233.71 l -10.72,5.96 -4.99,47.15 41.09,23.71 z"
     id="path1871"
     inkscape:connector-curvature="0" />
  <path
     style="fill:none;stroke:#000000;stroke-width:1px;stroke-linecap:butt;stroke-linejoin:miter;stroke-opacity:1"
     d="M 171.64654,251.60528 161.37,257.53 130.43,239.67"
     id="path1873"
     inkscape:connector-curvature="0" />
  <path
     style="fill:none;stroke:#000000;stroke-width:1px;stroke-linecap:butt;stroke-linejoin:miter;stroke-opacity:0.21212122"
     d="M 275.03,89.37 187.66,38.93"
     id="path1889"
     inkscape:connector-curvature="0" />
  <path
     style="fill:none;stroke:#000000;stroke-width:1px;stroke-linecap:butt;stroke-linejoin:miter;stroke-opacity:1"
     d="M 335.03633,339.68043 329.7,320.22 l -12.44,-7.3 -4.13,14.25 2.39,1.57 4.96193,-7.65566 7.83132,5.42168 L 331.9,338 Z"
     id="path1891"
     inkscape:connector-curvature="0" />
  <path
     style="fill:none;stroke:#000000;stroke-width:1px;stroke-linecap:butt;stroke-linejoin:miter;stroke-opacity:1"
     d="m 348.47,331.06 -5.69892,-16.60217 -10.24096,-5.42169 -5.47012,9.66386 2.64,1.52 3.43253,-8.77422 6.0241,3.01205 7.33108,14.93976 L 345.83,329.53 Z"
     id="path1893"
     inkscape:connector-curvature="0" />
  <path
     style="fill:none;stroke:#000000;stroke-width:1px;stroke-linecap:butt;stroke-linejoin:miter;stroke-opacity:1"
     d="m 43.57,482.8 7.83,1.5"
     id="path1905"
     inkscape:connector-curvature="0" />
</svg>
